<svg version="1.2" xmlns="http://www.w3.org/2000/svg" viewBox="0 0 512 512" width="512" height="512">
	<title>2D</title>
	<style>
		.s0 { fill: #000000 } 
	</style>
	<g>
		<path id="Shape 1" fill-rule="evenodd" class="s0" d="m255.6 44c192.4 0 193.6 0 201.2 1.9 4.2 1.1 10.2 3.4 13.3 5.1 3.2 1.7 8.8 6.1 12.5 9.8 3.7 3.8 8.1 9.2 9.7 12.1 1.6 2.9 3.9 8.1 7.4 17.8l0.2 123.7c0.2 106.3 0.1 124.6-1.2 130.6-0.7 3.9-2.9 10.3-4.9 14.3-2.5 5.3-5.3 9.1-10.7 14.4-4 4-9.8 8.6-13 10.3-3.1 1.7-9.1 4-13.3 5.1-7.4 1.9-9.9 2-181.6 2v38.5h99.1v38.6h-236.4v-38.6h99.1v-38.5h-87c-84.7 0-87.2-0.1-94.6-2-4.2-1.1-10.2-3.4-13.4-5-3.2-1.8-8.8-6.2-12.9-10.4-5.3-5.3-8.2-9.1-10.8-14.4-1.9-4-4.1-10.3-4.9-14-1.2-5.8-1.4-25.2-1.4-128.3 0-119.5 0-121.6 1.9-129.2 1.1-4.2 3.4-10.3 5-13.5 1.8-3.3 6.1-8.8 10.2-13 4.2-4.2 9.6-8.6 12.9-10.3 3.2-1.7 9-3.9 12.9-5 7-1.9 10.7-1.9 200.7-2zm-192.6 39.6c-1.6 0.5-4.1 1.9-5.7 3.1-1.6 1.2-3.8 4.2-5 6.5l-2.2 4.3 0.5 242c3.7 5.9 6.5 8.7 8.5 10l3.8 2.5h386.3c6.5-4.5 9.3-7.5 10.4-9.6 1.9-3.9 2-4.3 2.2-123.9l0.2-120.1c-4-8.5-6-10.9-8.8-12.7l-4-2.7c-308.6-0.2-384.4 0-386.2 0.6zm145.9 67.7c10.3 0.3 13.3 0.7 18.1 2.6 3.1 1.3 7.8 4 10.3 6 2.4 2 5.5 5.5 6.8 7.7 1.3 2.3 3.1 6.5 4 9.4 1.1 3.7 1.4 7.8 1.2 13.5-0.3 6.8-0.9 9.3-3.4 14.5-2 4.2-4.9 8.1-9 12-4.8 4.6-8.9 7.2-19 12.2-8.8 4.4-13.8 7.4-15.9 9.9-1.7 1.9-3.6 4.6-4.1 5.9-0.5 1.3-0.9 4.6-0.9 12.1l22.8 0.2c21.3 0.2 23 0.4 25.5 2.2 1.5 1.1 3.5 3.7 4.5 5.8 1.3 2.8 1.6 4.7 1 7.2-0.4 1.9-1.9 4.5-3.6 6-1.8 1.6-5 3.1-7.6 3.6-2.5 0.6-17.2 1-32.6 1-24.8 0-28.6-0.2-31.6-1.7-1.9-0.9-4.4-3-5.5-4.6-1.9-2.6-2-4.2-2-35.7l3.1-6.2c1.6-3.5 5.1-8.4 7.6-11 2.5-2.6 6.7-6.2 9.3-7.9 2.6-1.8 8.4-4.8 12.9-6.8 4.4-1.9 9.6-4.5 11.4-5.7 1.9-1.2 4.6-3.5 6.2-5.2 1.7-1.8 3.1-4.6 3.4-6.7 0.3-1.9 0.2-5.2-0.2-7.3-0.4-2.2-1.7-4.9-2.9-6.1-1.2-1.2-3.7-2.6-5.5-3.1-1.9-0.5-4.8-1-6.5-1-1.7 0-4.6 0.7-6.4 1.5-1.8 0.8-4 2.4-4.7 3.6-0.8 1.2-1.8 5.2-2.4 8.9-0.8 5.9-1.3 7.1-4.3 9.9q-3.4 3.1-7.4 3.7c-3 0.5-5.2 0.1-8.6-1.4-3.1-1.4-5-3.1-6.1-5.2-1.1-2.3-1.4-4.8-1.1-9.4 0.3-4.3 1.4-8.3 3.5-13 1.7-3.7 4.7-8.4 6.6-10.5 1.9-2 5.7-4.8 8.3-6.1 2.6-1.4 6.5-3.1 8.6-3.8 2.6-0.9 7.7-1.2 16.2-1zm90.1 0.1c17 0.2 20.3 0.6 25.7 2.4 3.4 1.1 8.4 3.7 11 5.7 2.6 2 6.2 5.8 7.9 8.4 1.7 2.6 3.5 7 4 9.6 0.7 3 0.9 18.4 0.8 41-0.3 34.6-0.4 36.4-2.4 41.4-1.2 3-3.5 7.1-5.1 9.2-1.7 2.1-5 5.3-7.4 7-2.5 1.8-6.6 3.9-9.2 4.8-4 1.4-8.5 1.7-27.4 1.7-21.2 0-22.6-0.1-24.6-1.9-1.2-1.1-2.8-3.4-3.5-5.1-1-2.5-1.3-14-1.3-58.6 0-50.8 0.2-55.7 1.7-58.9 0.9-1.9 2.5-4 3.6-4.5 1-0.5 2.9-1.3 4.3-1.8 1.3-0.4 11.1-0.6 21.9-0.4zm-3.8 110c12.8-0.9 17.1-1.8 19.4-3 2.3-1.1 4.5-3.2 5.5-5.2 1.6-3.1 1.8-6.2 1.8-34.7 0-17.2-0.5-32.9-1-34.7-0.5-1.9-2.1-4.6-3.5-6-1.5-1.4-4.4-3-6.5-3.6-2.1-0.5-6.5-1-9.8-1h-5.9z"/>
	</g>
</svg>