<svg version="1.2" xmlns="http://www.w3.org/2000/svg" viewBox="0 0 512 512" width="512" height="512">
	<title>2D</title>
	<style>
		.s0 { fill: #000000 } 
	</style>
	<g>
		<path id="Shape 2" fill-rule="evenodd" class="s0" d="m255.6 43.9c192 0 193.2 0 200.8 1.9 4.2 1.1 10.2 3.4 13.3 5.1 3.1 1.7 8.7 6.1 12.4 9.8 3.7 3.7 8.1 9.1 9.7 12 1.6 2.9 3.9 8.1 7.4 17.8l0.2 123.3c0.2 106.1 0.1 124.4-1.2 130.4-0.7 3.8-2.9 10.2-4.8 14.1-2.6 5.4-5.4 9.1-10.8 14.5-3.9 3.9-9.8 8.6-12.9 10.3-3.1 1.6-9.1 3.9-13.3 5-7.4 1.9-9.9 2-181.3 2v38.4h99v38.5h-236v-38.5h99v-38.4h-86.9c-84.5 0-87-0.1-94.4-2-4.2-1.1-10.2-3.3-13.3-5-3.3-1.7-8.9-6.2-13-10.3-5.3-5.3-8.1-9.2-10.7-14.5-1.9-3.9-4.1-10.2-4.9-13.9-1.2-5.7-1.4-25.1-1.4-127.9 0-119.2 0-121.3 1.9-128.9 1.1-4.2 3.4-10.3 5-13.4 1.7-3.3 6.1-8.9 10.2-13 4.1-4.2 9.6-8.6 12.9-10.3 3.1-1.7 8.9-3.9 12.8-5 7-1.9 10.6-1.9 200.3-2zm-192.2 39.5c-1.6 0.5-4.1 1.9-5.7 3.1-1.6 1.2-3.8 4.1-5 6.5l-2.1 4.3 0.4 241.3c3.7 5.9 6.5 8.7 8.5 10.1l3.8 2.4h385.5c6.5-4.4 9.3-7.5 10.3-9.6 2-3.8 2-4.3 2.3-123.6l0.2-119.7c-4-8.6-6-10.9-8.8-12.7l-4-2.7c-308-0.2-383.7 0.1-385.4 0.6zm139.9 67.3c22.8 0 23.9 0 27.9 2.1 2.3 1.2 5 3.4 5.9 5 1.1 1.7 1.8 4.8 1.8 7.5 0.1 4-0.9 6.2-8.5 19.2-4.8 8.1-8.5 14.8-8.4 14.8 0.2 0.1 2.7 1.8 5.7 3.9 3 2 6.8 5.4 8.4 7.5 1.6 2.1 3.9 6.3 5 9.2 1.3 3.6 2.1 8.3 2.4 14.9 0.3 6.9 0 11.3-1.1 15.8-0.9 3.5-2.6 8.4-3.9 11.1-1.2 2.6-4.1 6.7-6.4 9-2.2 2.3-7.1 5.7-10.7 7.4-4.1 2-9.5 3.7-13.8 4.3-5.3 0.8-9.1 0.8-14.3 0.1-4.8-0.8-9.8-2.4-15-4.9-5.9-3-8.7-5-11.5-8.5-2-2.6-4.1-6.6-4.8-9.3-0.9-3.6-1-5.9-0.2-8.9 0.8-3 1.9-4.6 4.1-6 1.7-1.1 4.3-2 5.7-2 1.5 0 4 0.6 5.7 1.3 1.8 0.7 4.7 3.4 6.7 6.3 2.5 3.4 4.9 5.6 8.1 7 3.7 1.7 5.6 1.9 10.2 1.5q5.7-0.6 9.3-3.1c2.3-1.5 4.1-3.8 5.1-6.5 1-2.7 1.4-6.3 1.2-10.9-0.3-5.4-0.9-7.5-3-10.8-1.4-2.2-3.9-4.6-5.4-5.4-1.6-0.8-5.1-1.9-7.9-2.5-2.8-0.5-5.9-1.9-7.1-3.1-1.2-1.2-2.4-3.1-2.6-4.3-0.3-1.2-0.1-3.8 0.4-5.8 0.5-1.9 3.9-9.2 7.6-16.1 3.7-6.8 6.5-12.8 6.2-13.2-0.2-0.4-7.5-0.7-16.1-0.7-12.9 0-16.5-0.3-19.7-1.7-2.5-1.1-4.4-2.7-5.3-4.6-0.8-1.6-1.4-4.6-1.4-6.7 0-2.1 0.4-4.7 0.9-5.8 0.5-1 2.2-2.7 3.7-3.7 1.5-1 4.6-2.2 7-2.5 2.4-0.4 15-0.8 28.1-0.9zm88.9 0.1c10-0.1 18.5 0.4 23.3 1.3 4.9 0.9 9.7 2.6 13.4 4.7 3.1 1.7 6.9 4.7 8.4 6.4 1.6 1.8 3.9 5.7 7.7 13.9l0.4 32.2c0.2 20-0.1 35.1-0.8 39.9-0.6 4.2-2 9.8-3.2 12.5-1.2 2.6-3.9 6.7-6 9.1-2.5 2.8-6.4 5.5-17.9 11.1h-46.1l-2.9-2.9c-2-2-3.2-4.4-3.9-7.7-0.6-3-0.9-24.4-0.7-57.7 0.2-46.7 0.4-53.2 1.8-55.8 0.9-1.6 2.3-3.5 3.3-4.3 0.9-0.8 3-1.7 4.6-2.1 1.6-0.3 10-0.6 18.6-0.6zm0 109.4c9.3 0 13.6-0.4 15.7-1 2.1-0.6 5-2.2 6.5-3.6 1.5-1.4 3.1-4.1 3.6-5.9 0.5-1.9 0.9-16.4 0.9-32.2-0.1-15.9-0.5-30.6-1-32.7-0.5-2.2-1.7-5-2.6-6.3-1-1.3-3.1-3-4.6-3.8-1.5-0.7-6.2-1.5-10.5-1.8l-7.7-0.4z"/>
	</g>
</svg>