<svg version="1.2" xmlns="http://www.w3.org/2000/svg" viewBox="0 0 1256 1172" width="1256" height="1172">
	<title>Robotsvg1</title>
	<style>
		.s0 { fill: #ffffff } 
	</style>
	<path id="Shape 3" fill-rule="evenodd" class="s0" d="m1024.9 136.1c15.7 0.3 32.2 1.1 36.6 1.8 4.4 0.6 12 2.3 16.9 3.6 4.9 1.3 11.2 3.1 13.9 4.1 2.7 0.9 9.4 3.9 14.9 6.7 5.4 2.7 12.3 6.9 15.3 9.2 2.9 2.3 8.4 7.3 12.1 11.2 3.7 3.9 8.3 9.5 10.2 12.5 1.9 3 4.9 8.4 6.6 12 1.6 3.6 4.1 10.1 5.4 14.5 1.3 4.4 3.2 12.9 4.3 18.9 1.7 9.5 2 15.4 1.9 43.3-0.1 17.8-1.3 67.7-2.8 110.9-1.4 43.2-3.7 109.9-5 148.1-1.3 38.3-3.3 94.3-4.4 124.4-1.1 30-2.1 54.8-2.3 54.9-0.1 0.1-3.3-1-13.9-5.3l1.4-37.8c0.7-20.8 2.6-75.6 4-121.8 1.5-46.3 3.5-106.7 4.5-134.3 1-27.6 2.3-76.6 2.8-108.9 0.8-51.4 0.7-60-0.7-69.1-0.8-5.8-2.7-14.1-4.1-18.5-1.4-4.4-4.4-11.5-6.8-15.8-2.4-4.3-7-10.8-10.2-14.4-3.2-3.6-9.4-8.9-13.8-11.8-4.3-2.9-11.7-7-16.3-9.1-4.6-2.1-13.3-5-19.3-6.6-6.1-1.5-15.7-3.3-21.4-4-5.8-0.7-19.5-1.6-30.5-2-11-0.3-67.2-0.3-124.9 0.2-57.7 0.4-134.4 1.1-170.4 1.4-36 0.3-92.2 0.7-124.9 1-32.7 0.3-80.4 0.6-105.9 0.8-25.6 0.1-61.3 0.5-79.5 1-18.1 0.4-38.9 1.3-46.2 2.1-7.3 0.7-16.8 2-21 2.8-4.3 0.9-8.3 2-8.8 2.6-0.7 0.6 6.8 0.8 23.4 0.6 13.5-0.3 45-0.6 70-0.7 25-0.1 85.9-0.6 135.4-1 49.5-0.4 112.9-1.1 140.9-1.4 28-0.3 80.6-0.8 116.9-1.1 36.3-0.3 86.4-0.6 111.4-0.5 40.2 0.1 46.6 0.3 54.9 1.9 5.3 1.1 12.6 2.8 16.5 3.9 3.8 1.1 10.5 3.5 14.8 5.4 4.4 1.9 10.6 4.8 13.9 6.4 3.3 1.7 8.6 5.1 11.9 7.6 3.2 2.5 8.8 7.7 12.5 11.7 3.6 3.9 8 9.4 9.8 12.3 1.8 2.9 4.5 7.7 6 10.8 1.4 3 3.7 8.6 4.9 12.4 1.3 3.9 3.1 11 4.1 16 0.9 4.9 2.3 17 2.9 26.9 1 15.4 0.9 28.4-1.3 95.4-1.4 42.7-2.9 86-4.3 114.9l6.1 7.3c3.4 3.9 7.5 9.2 9.2 11.7 1.7 2.5 4.3 7.9 5.9 12 1.6 4.1 3.6 10.2 4.5 13.5 1.2 4.5 1.6 11.2 1.6 27.8 0 18.1-0.3 23.4-1.8 30.3-1.1 4.7-2.9 11.2-4 14.4-1.1 3.3-4.3 10.4-7.1 15.9-2.7 5.5-7.4 13-10.3 16.8-3 3.8-7 8.6-9.1 10.7-2 2.1-6.9 5.9-10.8 8.6-3.9 2.6-11.1 6.5-16.1 8.7-5 2.2-12.3 4.7-16.1 5.6-4.1 1-11 1.6-16.5 1.6-7 0-11.4-0.6-16.5-2.2-3.8-1.2-9.8-3.9-13.2-6-3.5-2.1-8.5-6.1-11.3-8.9-2.7-2.7-6.7-7.7-8.8-11-2.2-3.3-5.1-8.7-6.5-11.9-1.4-3.3-3.5-9.6-4.6-14-1.6-6.2-2.1-11.9-2.2-24.9-0.2-12.8 0.2-19.1 1.5-25.8 0.9-5 3-12.8 4.5-17.4 1.6-4.7 4.6-12 6.7-16.4 2.1-4.3 6-11 13.2-21.8l2.8-78.5c1.5-43.2 2.8-90.7 2.8-105.5 0.1-18.8-0.4-30.1-1.4-37.8-0.9-6-3-15.2-4.8-20.4-1.8-5.2-5.3-12.8-7.8-17-2.5-4.1-7-10-10-13-2.9-3.1-8.3-7.6-11.8-10-3.5-2.4-10-6.1-14.3-8.1-4.4-2-10.9-4.6-14.4-5.8-3.6-1.2-8.7-2.6-11.4-3.2-2.8-0.6-8.4-1.5-12.5-2.1-4.1-0.6-16.7-1.6-27.9-2.4-15.7-1-35.4-1.1-84.9-0.6-35.5 0.4-92.8 0.9-127.4 1.2-34.7 0.3-108.9 0.8-164.9 1.2-56.1 0.4-121.7 0.9-145.9 1-24.2 0.2-60.4 0.6-80.5 1-20 0.4-43.4 1.3-52 2.1-8.5 0.8-22.7 2.7-31.5 4.3-8.9 1.5-17.9 3.2-20.1 3.7-2.2 0.5-4.5 1.4-5 2.1-0.8 0.8 4.7 0.9 20.9 0.6 12.1-0.3 53.3-0.7 91.5-0.9 38.2-0.3 97.5-0.7 131.9-1 34.3-0.3 72.1-0.7 83.9-0.9 11.9-0.3 65.4-0.8 119-1.3 53.6-0.4 120.6-0.7 148.9-0.6 38.8 0.1 53.2 0.5 58.9 1.6 4.1 0.7 11.7 2.5 16.9 3.9 5.2 1.5 13.4 4.4 18.3 6.6 4.9 2.2 12.1 5.9 15.9 8.2 3.8 2.3 10.8 8.1 15.6 12.8 4.8 4.6 10.9 11.9 13.5 16 2.6 4.1 5.8 9.7 7 12.5 1.2 2.7 3.3 8.5 4.7 12.9 1.4 4.4 3.4 12.9 4.5 19 2 10.8 2 12 0.3 93.5-0.9 45.4-2.8 115.6-4.3 156.1-1.4 40.5-4.6 134.2-7.2 208.3-2.5 74.2-5.3 151.8-6.3 172.6-1.5 32.4-2 38.8-3.8 45.2-1.2 4.1-3.6 11-5.4 15.4-1.8 4.4-5.2 11.3-7.6 15.3-4.2 7.2-4.3 7.4-1.8 6.8 1.4-0.3 16.5-5.2 33.7-10.9 17.1-5.8 37.8-12.7 46-15.5 8.2-2.8 15.1-4.8 15.3-4.5 0.3 0.2-0.4 3.9-3.3 15.8l-26.6 8.9c-14.7 4.9-45.2 15-67.9 22.5-22.7 7.4-46.4 14.8-52.8 16.3-6.3 1.5-16.9 3.2-23.5 3.9-7.9 0.7-20.4 0.9-36.5 0.4-13.5-0.4-31.2-1.3-39.4-1.9-8.3-0.7-26.5-1.9-40.5-2.9-14-0.9-42.5-2.9-63.3-4.4-20.9-1.5-44.4-3.2-52.4-3.9-8-0.6-29.7-2.1-48.4-3.3-18.7-1.2-49.9-3.2-69.3-4.5-19.5-1.2-41.8-2.7-49.4-3.4-7.7-0.6-27.9-2-44.9-3.2-17.1-1.2-46.7-3.2-65.9-4.4-19.2-1.3-41.9-2.8-50.4-3.4-8.5-0.7-24.2-1.7-34.9-2.3-10.7-0.6-24.9-1.6-31.4-2.3-6.6-0.6-16.7-1.8-22.5-2.7-5.7-0.9-14.7-2.7-19.9-4-5.2-1.4-11.9-3.5-14.9-4.6-3-1.2-8.3-3.6-11.9-5.4-3.5-1.8-9.5-5.4-13.3-7.9-3.8-2.6-9.9-7.7-13.5-11.5-3.7-3.8-8.4-9.5-10.6-12.8-2.2-3.3-5-8.1-6.2-10.5-1.2-2.5-3.5-8.3-5-13-1.6-4.7-3.5-12.3-4.3-16.9-0.8-4.7-1.7-14.1-2.2-20.9-0.4-6.9-1.2-23.4-1.8-36.9-0.5-13.4-1.6-39.8-2.3-58.7-0.8-18.8-2.3-55.8-3.5-82.1-1.1-26.2-3.1-73.7-4.4-105.4-1.3-31.8-4.1-98.3-6.1-147.8-2.1-49.5-4.2-101-4.8-114.4-0.5-13.4-0.9-28.8-0.8-34.1 0.1-5.3 0.9-14.7 1.8-20.9 1-6.1 2.8-14.7 4-19.1 1.2-4.3 3.8-11 5.6-14.9 1.8-3.8 4.9-9.1 6.8-11.8 2-2.8 6.3-7.8 9.7-11.3 3.4-3.4 8.2-7.6 10.7-9.3 2.5-1.7 7.8-4.8 11.6-6.9 3.9-2.1 16.6-7.1 28.2-11.1 11.7-4 41.8-14.1 66.9-22.4 25.2-8.3 56.2-18.5 68.9-22.7 12.7-4.2 36.7-12.2 53.3-17.8 16.6-5.6 37.4-12.7 46.3-15.8 10-3.5 18.7-5.9 23.1-6.3 3.8-0.4 23.6-0.9 44-1.1 20.3-0.2 47-0.4 59.4-0.6 12.4-0.2 40.9-0.4 63.5-0.6 22.5-0.1 69-0.4 103.4-0.7 34.4-0.3 71.7-0.7 82.9-0.9 11.3-0.1 32-0.4 46-0.6 14-0.2 39.4-0.5 56.5-0.6 17-0.2 64.2-0.6 104.9-0.9 40.7-0.3 74.1-0.7 74.3-0.9 0.2-0.1 13.3 0 29 0.3zm-115.6 39.9c-0.4 0.3-42.6 0.9-94 1.4-51.3 0.4-122.8 1-158.8 1.3-36 0.3-100.7 0.7-143.9 1-43.1 0.2-101.4 0.7-129.4 1-28 0.4-57.3 1-65 1.5-7.7 0.5-17.3 1.3-21.5 1.8-4.1 0.5-13.4 2-20.5 3.4-7.2 1.3-16.4 3.4-20.5 4.6-4 1.2-7.7 2.6-8 3.1-0.4 0.5 5.3 0.7 14.8 0.3 8.6-0.3 47.9-0.8 87.5-1 39.5-0.3 99.4-0.7 132.9-1.1 33.5-0.3 95.8-1 138.4-1.4 42.6-0.5 112.5-1.2 155.4-1.5 42.9-0.3 89.4-0.2 103.4 0.1 20.9 0.6 27.1 1.1 34.4 2.8 4.9 1.2 12.1 3.1 15.9 4.3 3.8 1.3 11 4.2 15.9 6.5 4.9 2.4 11.3 5.9 14.3 7.9 3 2 8.2 6 11.6 8.9 3.3 3 8.4 8.4 11.2 12 2.8 3.7 7 10.2 9.2 14.5 2.2 4.3 5.1 11.5 6.5 15.8 1.4 4.4 3.3 12.1 4.2 17 1 4.9 2.2 15.4 2.6 23.4 0.6 10.1 0.2 40.4-1.4 101.7l-2.4 87.2c5.9-3.3 8.8-5 10.1-5.9 1.4-0.9 5.1-2.9 8.1-4.4 3.1-1.5 8.1-3.5 11.1-4.6 3.6-1.2 9.4-2 16.5-2.3 8.3-0.4 12.5-0.1 17 1.2 3.3 0.9 6.3 1.6 6.7 1.6 0.4 0 1.1-5.9 1.5-13.1 0.5-7.3 2-49 3.4-92.8 1.7-54.9 2.3-83.4 1.7-92-0.4-6.8-1.3-16.7-2-21.9-0.7-5.2-2.3-13-3.7-17.4-1.4-4.4-4.3-11.3-6.5-15.4-2.3-4.1-7-10.7-10.6-14.5-3.5-3.9-9.7-9.3-13.7-12.1-4-2.7-10.9-6.6-15.2-8.7-4.4-2.1-11.3-4.7-15.4-5.9-4.1-1.1-11.5-2.7-16.4-3.6-4.9-0.8-14.8-2-21.9-2.6-7.2-0.6-24.2-1.5-38-1.9-13.7-0.5-25.2-0.6-25.5-0.2zm-207.4 58.7c-13.7 0.4-59.4 0.9-101.4 1.2-42.1 0.3-102.1 0.8-133.4 1.1-31.4 0.3-95.5 0.7-142.4 0.9-47 0.3-105.9 0.8-131 1.2-25 0.3-53.3 1.2-62.9 2-10.6 0.8-21.5 2.3-27.3 3.7-5.4 1.4-14.5 4.6-20.2 7.1-5.7 2.7-13 7-16.4 9.7-3.3 2.7-8.4 7.8-11.3 11.3-2.9 3.5-6.4 8.6-7.9 11.3-1.4 2.7-3.6 7.9-4.8 11.4-1.2 3.5-2.9 10.2-3.9 14.9-0.9 4.7-1.8 13.8-1.9 20.4-0.1 6.5 0.2 22.7 0.8 35.8 0.6 13.1 2.7 65.3 4.7 115.9 2.1 50.6 4.7 114.7 5.8 142.3 1.1 27.6 2.9 72.9 4 100.5 1.2 27.6 2.5 61 3.1 74.1 0.5 13.2 1.8 42.7 2.7 65.7 0.9 23 2.1 47.4 2.6 54.2 0.5 6.9 1.9 16.3 3.1 20.9 1.3 4.7 4 11.9 6.2 16 2.1 4.1 6.3 10.6 9.4 14.4 3 3.8 8.6 9.4 12.4 12.4 3.8 3 9.8 6.9 13.3 8.8 3.5 1.8 10.2 4.6 14.9 6.3 4.6 1.7 13.1 4 18.9 5.2 5.7 1.2 16.5 2.9 23.9 3.8 7.4 0.9 28.2 2.6 46.3 3.8 18.2 1.2 35.4 2.5 38.5 2.8 3 0.3 18.7 1.3 34.9 2.2 16.2 1 34.4 2.2 40.4 2.8 6 0.6 18.6 1.6 27.9 2.2 9.4 0.6 29.4 1.8 44.4 2.8 15.1 0.9 34.7 2.2 43.5 2.8 8.7 0.6 33.9 2.3 55.8 3.9 22 1.5 47.8 3.2 57.4 3.9 9.6 0.6 32.5 2.1 50.9 3.3 18.4 1.3 40.4 2.8 48.9 3.4 8.5 0.5 23.1 1.5 32.4 2.2 9.4 0.6 27.8 1.9 40.9 2.9 16.6 1.2 31.9 1.7 49.5 1.4 17.5-0.2 28.1-0.7 34-1.8 4.7-0.9 11.4-2.5 15-3.6 3.6-1.2 10.4-3.9 15.1-6.1 7-3.3 10.3-5.7 17.8-12.9 7-6.8 10.2-10.8 13.5-16.8 2.3-4.4 5.2-11.1 6.4-14.9 1.2-3.8 2.7-10.5 3.4-14.9 0.7-4.4 2.1-27.7 3.1-51.7 0.9-24.1 3.4-95.5 5.5-158.6 2.1-63.2 4.8-146.7 6.1-185.5 1.3-38.8 3.6-106.4 5-150.2 1.9-57.5 2.4-83.1 1.7-92.5-0.4-7.1-1.4-17.4-2.2-22.9-0.7-5.4-2.5-13.3-3.9-17.4-1.3-4.1-4.4-11-6.8-15.3-2.4-4.4-7.2-10.8-10.7-14.4-3.5-3.7-10.1-9.1-14.8-12.2-4.6-3-11.7-7-15.8-8.8-4.1-1.8-11.6-4.4-16.8-5.8-5.2-1.4-16.2-3.3-24.4-4.3-9.1-1-27.6-1.9-47-2.3-17.5-0.3-43.2-0.3-56.9 0zm52.5 25.8c13.2 0.4 19.7 1 29.6 3.1 7 1.5 15.5 3.7 18.9 5 3.4 1.4 9.5 4.1 13.6 6.2 4.1 2.1 11 6.4 15.2 9.5 4.3 3.1 10.6 9 14.1 13.1 3.9 4.7 8 11.3 10.9 17.5 2.6 5.5 5.6 13.4 6.7 17.5 1 4.1 2.5 11.7 3.3 16.9 1.1 7.1 1.4 19 1.1 47.3-0.1 20.8-1.8 79.4-3.6 130.3-1.9 50.8-4.5 125.3-5.8 165.5-1.4 40.2-3.4 98.9-4.5 130.3-1.2 31.5-2.7 73.3-4.8 128.8l-4.2 11.4c-2.3 6.3-5.3 13.6-6.8 16.4-1.4 2.7-5 8-7.9 11.8-3 3.9-8.5 9.5-12.4 12.6-3.9 3-10.3 7.1-14.3 9.1-4.1 1.9-10.6 4.5-14.6 5.8-4 1.4-11.4 3.1-16.4 4-5.5 1-16.4 1.8-28.5 2-14.4 0.2-29.5-0.5-58.4-2.6-21.4-1.6-42.2-3.1-46.4-3.4-4.1-0.3-40.4-2.8-80.8-5.6-40.3-2.7-79.6-5.4-87.3-6-7.7-0.6-18.7-1.4-24.4-1.7-5.8-0.4-16.6-1.2-24-1.7-7.4-0.6-32.1-2.4-54.9-3.9-22.7-1.5-52.8-3.5-66.8-4.4-14-0.9-31.8-2.2-39.4-2.8-7.7-0.5-18.5-1.3-24-1.7-5.5-0.3-19.2-1.4-30.4-2.2-11.3-0.9-24.1-2.2-28.4-2.8-4.4-0.6-12-2.1-17-3.2-4.9-1.2-13.1-3.9-18.3-6.1-5.2-2.1-12.8-6-16.8-8.6-4.1-2.6-10.3-7.7-13.9-11.3-3.5-3.6-8.4-9.4-10.7-13-2.3-3.6-5.9-10.5-8-15.5-2.1-4.9-4.5-13-5.4-17.9-0.9-5-2-13.5-2.5-18.9-0.4-5.5-1.3-20.7-1.8-33.9-0.6-13.1-2-46.5-3.1-74.1-1.1-27.6-3.3-80-4.8-116.4-1.5-36.4-4.2-103.4-6.1-148.8-1.8-45.4-3.9-96.7-4.7-113.9-0.8-17.2-1.6-33.6-1.7-36.3-0.2-2.8 0.2-9 0.8-14 0.6-4.9 2-12.9 3.1-17.8 1.1-4.9 3.5-12.5 5.2-16.9 1.8-4.4 5.2-10.8 7.6-14.4 2.4-3.5 6.4-8.6 9-11.2 2.6-2.7 7.4-6.7 10.7-9 3.4-2.3 8.4-5.3 11.2-6.7 2.7-1.3 8.6-3.9 13.1-5.6 4.4-1.7 10.3-3.7 13-4.4 2.8-0.7 10.2-1.5 16.5-1.8 6.4-0.2 35.8-0.7 65.5-1 29.7-0.4 82.8-0.9 117.9-1.2 35.2-0.3 91.4-0.8 125-1.1 33.5-0.3 91.5-0.8 128.9-1.1 37.3-0.3 85.5-0.8 106.9-1.1 21.4-0.3 46.6-0.4 56-0.1zm-144.2 15.9c-38.5 0.4-115.4 1.2-170.9 1.6-55.5 0.5-132.2 1.1-170.4 1.4-38.2 0.2-78.5 0.8-89.5 1.3-11 0.5-24 1.3-29 1.8-4.9 0.6-12.8 2.1-17.5 3.5-4.7 1.3-12.6 4.5-17.6 7-6.9 3.4-11 6.3-16.8 11.9-5.9 5.7-8.7 9.4-12.1 15.9-2.5 4.8-5.4 12.5-6.7 17.8-2 7.8-2.4 12.3-2.6 25.4-0.1 8.7 1.1 46.1 2.6 83.1 1.5 36.9 3.7 89.7 4.8 117.4 1.1 27.6 2.8 68.8 3.7 91.5 0.9 22.7 2.8 68.2 4.1 101 1.3 32.8 3.1 77.8 4.1 100 0.9 22.2 2.1 43 2.6 46.3 0.5 3.3 1.8 8.9 2.9 12.4 1.1 3.6 3 8.8 4.3 11.5 1.3 2.8 4.3 7.7 6.5 11 2.3 3.3 5.6 7.4 7.5 9 1.8 1.7 6.4 5.1 10.2 7.6 3.8 2.5 10.3 6.1 14.3 7.9 4.1 1.9 10.2 4.2 13.4 5.2 3.3 1 10.5 2.6 15.9 3.4 5.5 0.9 15.6 2.1 22.5 2.8 6.8 0.6 14.9 1.4 17.9 1.7 3 0.3 20.8 1.5 39.4 2.7 18.7 1.2 48.1 3.2 65.4 4.5 17.3 1.2 42.7 3 56.4 3.9 13.7 0.9 37 2.4 51.9 3.3 14.8 1 40.2 2.7 56.3 3.9 16.2 1.2 44.1 3.2 61.9 4.4 17.8 1.2 36.9 2.5 42.4 2.8 5.5 0.4 27.3 1.9 48.4 3.4 21.1 1.5 49.9 3.3 63.9 4 14 0.7 34.9 1.1 46.4 0.9 16.2-0.3 22.9-0.8 29-2.2 4.5-1.1 10.1-2.7 12.6-3.6 2.5-0.9 7.7-3.2 11.6-5.2 4.6-2.3 9.7-6.1 14.8-11 5.5-5.4 8.7-9.5 11.5-14.9 2.1-4.1 4.8-11 6-15.4 1.2-4.3 2.7-12.4 3.3-17.8 0.7-5.5 2.2-41.3 3.5-79.6 1.3-38.3 4-118.8 6-179 2-60.2 4.7-140.9 6-179.5 1.3-38.6 2.6-84 3-100.9 0.3-20.1 0.1-35-0.6-42.8-0.7-6.6-1.9-14.7-2.6-17.9-0.8-3.3-2.6-8.9-4-12.5-1.4-3.6-4.4-9.2-6.6-12.5-2.3-3.3-7.2-8.9-10.9-12.5-3.8-3.6-9.9-8.2-13.7-10.2-3.8-2.1-10.1-5-13.9-6.4-3.8-1.5-11.6-3.9-17.4-5.3-8.6-2.1-14.4-2.7-33.4-3.6-12.6-0.5-33.7-1-46.9-1.1-13.2 0-55.5 0.3-93.9 0.7zm-45.5 8.2c5.1-0.1 12.5 0.1 23.3 1.1l18.2 16.2c10 9 22.5 20.3 37.3 33.9l16.7 0.1c10.7 0 20 0.7 25.7 1.7 4.9 0.9 11.9 2.5 15.4 3.7 3.6 1.1 9.8 3.8 13.9 6 4.1 2.1 10.1 6.1 13.3 8.7 3.3 2.7 8 7.6 10.6 10.8 2.6 3.3 6.2 9.1 7.9 13 1.8 3.8 4.1 10.3 5.2 14.4 1.1 4.2 2.3 12.4 2.7 18.5 0.5 6 1.1 14.9 1.9 28.8l19.7 18.3c10.8 10.1 27.2 25.2 53.5 48.9l-1.6 54.7c-0.9 30.1-2.7 84.7-3.9 121.3-1.3 36.7-2.6 68.4-3.1 70.5-0.7 3.6-3 5.5-76.9 62.7l-0.8 6.7c-0.5 3.7-1.1 15.3-1.3 25.7-0.2 10.3-0.9 24.4-1.6 31.3-0.7 7.9-1.9 14.7-3.4 18.9-1.2 3.5-4 10-6.2 14.3-2.1 4.4-6.1 10.4-8.9 13.3-2.7 3-8.4 7.5-12.6 10.2-4.1 2.6-10.9 5.8-15.1 7.1-4.1 1.2-10 2.8-13 3.5-3.1 0.6-13.4 1.2-23 1.2-9.7 0.1-24.3-0.3-32.5-0.8-8.2-0.5-18.3-1.2-29.9-2.3l-49.8 39.9-9.9-0.7c-5.5-0.5-28-2.3-49.9-4.1-22-1.7-46-3.7-53.4-4.3-7.4-0.6-15.9-1.3-18.9-1.6-3.1-0.3-14.5-1.3-25.5-2.2-11-0.9-31.2-2.5-44.9-3.7-13.7-1.2-30.7-2.7-37.9-3.4-7.1-0.6-15.4-1.6-18.4-2.1-4.1-0.7-6.1-1.7-7.7-3.7-1.3-1.6-8.1-10.7-28.2-37.8l-8.3-0.9c-4.7-0.4-14-1.5-20.9-2.3-6.9-0.9-16-2.5-20.4-3.7-4.4-1.2-10.9-3.4-14.4-4.9-3.5-1.5-9.8-5.2-13.8-8.3-4.1-3.1-9.2-7.8-11.5-10.5-2.2-2.7-5.6-7.6-7.5-10.9-1.9-3.3-4.5-9.4-5.8-13.5-1.2-4.1-2.7-9.8-3.2-12.7-0.5-2.8-1.6-18.5-2.3-34.8-0.8-16.3-1.6-35-2.4-53.5l-12.8-18.5c-7-10.2-15.4-22.1-18.5-26.5-5.8-8.1-5.8-8.1-6.3-17-0.4-4.9-2.1-47.3-4-94.2-2.5-64.9-3.1-86-2.2-88.1 0.6-1.5 7-10 14-19 7.1-9 14.2-17.9 18.7-23.2l-1-23.9c-0.6-13.2-1-29.5-0.8-36.3 0.1-7.1 0.9-16.1 1.9-20.9 1-4.7 2.5-10.7 3.4-13.4 0.9-2.7 3-7.4 4.6-10.4 1.5-3 4.5-7.5 6.6-9.9 2.1-2.5 6.2-6.4 9-8.7 2.9-2.3 8.7-5.9 12.8-8 4.2-2.1 10.5-4.8 14.1-6 5.6-1.9 9.7-2.3 27.6-2.8 11.5-0.4 23.3-0.8 26.1-0.9 4.3-0.3 5.5-0.8 7.6-3.2 1.3-1.6 9.7-12.3 18.6-23.8 9-11.4 16.8-21 17.4-21.4 0.7-0.3 10.8-0.8 22.7-1.1 11.8-0.2 46.2-0.9 76.4-1.5 30.3-0.6 69.8-1.4 88-1.8 18.1-0.4 45.8-1 61.5-1.2 15.6-0.3 28.5-0.5 28.6-0.6 0.1-0.1 4.4-0.2 9.5-0.4zm-203.7 13.5c-72.9 0.2-79.1 0.4-80.9 2-1 0.9-4.3 5-7.2 9.1-2.9 4.1-9.1 12.4-13.7 18.6l-8.4 11.1c46.4 0.3 82 0.1 109.1-0.2 27.1-0.4 88.6-1 136.7-1.5 48.1-0.5 94.3-1.1 102.7-1.5 8.4-0.4 15.2-1 15.2-1.4 0-0.4-8-8.6-17.8-18.3l-17.9-17.5c-107.7-0.5-174.4-0.6-217.8-0.4zm160.3 51.4c-4.7 0.1-37.7 0.4-73.4 0.7-35.8 0.3-92.6 0.9-126.4 1.2-33.8 0.3-75.2 0.8-92 1.3-18.3 0.4-33.7 1.3-38.5 2.1-4.4 0.8-11.4 2.8-15.6 4.4-4.1 1.6-10 4.6-13 6.6-3 2.1-7.6 6.2-10.1 9.2-2.5 3-5.9 8.1-7.5 11.4-1.6 3.2-3.7 9-4.6 12.9-1 4.2-1.7 12.3-1.9 20.8-0.1 7.7 0 20.5 0.4 28.4 0.4 7.9 2 50.5 3.7 94.5 1.6 44.1 3.5 94.9 4.3 112.9 0.8 18.1 2.4 59.7 3.7 92.6 1.3 32.8 2.8 70 3.4 82.6 0.8 16.5 1.6 24.8 3 29.8 1.1 3.9 3.2 9.5 4.7 12.5 1.6 3 4.9 8 7.5 11 2.6 3 7.8 7.6 11.6 10.1 3.8 2.6 10.4 6.1 14.8 7.7 4.3 1.7 11.9 3.8 16.9 4.7 4.9 0.9 14.5 2.2 21.4 2.8 6.9 0.6 22.1 1.8 33.9 2.7 11.8 0.9 46.2 3.4 76.3 5.5 30.2 2.2 62.6 4.4 71.9 5.1 9.3 0.6 23.7 1.6 31.9 2.2 8.2 0.6 29.8 2.1 47.9 3.3 18.1 1.2 39.7 2.8 47.9 3.4 8.2 0.6 25.1 1.8 37.4 2.7 12.4 0.9 34.1 2.2 48.4 2.9 18.3 0.9 30 1 39.5 0.4 10-0.7 15.5-1.7 21.5-3.6 4.5-1.5 10.6-4.3 13.6-6.3 3.1-2 8.1-6.3 11.1-9.4 3-3.2 6.5-8.1 7.8-10.8 1.4-2.7 3.3-7.6 4.2-10.9 1-3.6 2.2-13.4 3-24.9 0.7-10.3 3-70.8 5.1-134.2 2.1-63.4 4.8-146 6.1-183.5 1.3-37.5 2.6-82.7 2.9-100.4 0.4-23.2 0.2-35.3-0.7-42.8-0.7-5.8-2-12.7-2.8-15.4-0.8-2.8-3.1-8.1-5-11.9-2.4-4.7-5.8-9.1-10.6-13.8-5-4.8-9.5-8-15.3-10.8-4.5-2.2-11.5-5-15.6-6.3l-7.4-2.3c-121.6-1.1-160.7-1.3-165.4-1.1zm97.8 14.1c13.4 0 29.3 0.4 35.3 1 6.1 0.5 13.9 1.8 17.4 2.7 3.6 0.9 9.6 3.1 13.4 4.8 3.9 1.7 9.6 5 12.9 7.3 3.2 2.4 8.3 6.9 11.2 10.2 2.9 3.2 6.6 8.8 8.3 12.4 1.7 3.5 3.8 8.7 4.7 11.4 0.8 2.8 1.9 7.5 2.4 10.5 0.6 3 1.3 11.7 1.6 19.4 0.4 8.5-0.2 39.8-1.5 80.1-1.3 36.3-3.3 97.6-4.6 136.2-1.3 38.6-3.4 98.1-4.7 132.3-1.2 34.2-2.7 66.7-3.4 72.3-0.8 7.4-2 12.3-4.3 17.9-1.8 4.2-4.6 9.7-6.2 12.1-1.7 2.5-5 6.4-7.4 8.8-2.4 2.4-6.6 5.8-9.4 7.5-2.8 1.8-8.7 4.5-13.1 6.2-5 1.9-12.4 3.6-19.6 4.6-10.1 1.4-14.3 1.4-34.5 0.2-12.6-0.7-32.3-2-43.9-2.9-11.5-0.9-28.1-2-36.9-2.6-8.8-0.6-30.5-2.1-48.4-3.4-17.8-1.2-47.4-3.3-65.8-4.5-18.4-1.3-40-2.8-47.9-3.4-8-0.5-32.2-2.2-53.9-3.8-21.7-1.5-47.3-3.3-56.9-3.9-9.6-0.7-22.8-1.9-29.4-2.8-6.6-0.8-14.4-2.2-17.4-3-3-0.8-8.2-2.4-11.5-3.6-3.2-1.1-8.6-3.8-11.8-5.8-3.2-2.1-8.6-6.4-11.8-9.7-3.3-3.4-7.3-8.5-9-11.6-1.7-3-4.2-8.6-5.6-12.4-1.3-3.9-3-11.3-3.7-16.5-0.6-5.2-1.6-20.8-2.2-34.8-0.6-14-1.4-32.5-1.8-41.3-0.3-8.7-1.7-42.8-3-75.6-1.3-32.8-3.8-97.1-5.7-142.8-1.9-45.7-3.3-89.1-3.1-96.5 0.2-9.1 0.9-16.3 2.3-22.4 1.1-5.1 3.7-12.3 5.9-16.8 3-5.9 5.8-9.7 11-14.6 5.5-5.3 9.1-7.7 17.3-11.5 5.6-2.7 13.2-5.5 16.8-6.3 4.1-0.9 15-1.6 29-1.8 12.4-0.3 52.2-0.7 88.5-1 36.2-0.3 95.8-0.7 132.4-1 36.5-0.3 83.7-0.7 104.9-0.9 21.2-0.1 38.6-0.4 38.6-0.4 0.1-0.1 11.2-0.2 24.5-0.3zm-139.3 12.8c-23.3 0.3-73.7 0.7-111.9 1.1-38.2 0.3-87.7 0.9-109.9 1.3-23.1 0.4-44.4 1.2-49.5 2-5 0.7-12.7 2.6-17.1 4.4-4.4 1.7-9.4 3.9-11.1 4.9-1.6 0.9-5.5 4.4-8.5 7.5-3.1 3.2-6.9 8.5-8.5 11.8-1.6 3.2-3.7 9.5-4.7 13.9-1.5 6.4-1.8 11.1-1.5 24.3 0.1 9.1 1 35 2 57.7 0.9 22.7 2.7 68.2 4 101 1.3 32.9 3.4 86.6 4.7 119.4 1.3 32.9 2.7 67.1 3.1 76.1 0.4 9.1 1 20.7 1.5 25.9 0.4 5.2 1.7 12.4 2.8 16 1.2 3.5 3.9 9.1 6 12.4 2.2 3.2 6.2 7.9 8.9 10.3 2.7 2.4 7.3 5.7 10.3 7.2 3 1.6 8.4 3.8 11.9 4.9 3.6 1.1 10.3 2.8 14.9 3.7 4.7 0.9 16.8 2.4 26.9 3.3 10.2 0.9 34.4 2.6 53.9 3.9 19.5 1.2 38.4 2.5 41.9 2.8 3.6 0.3 21.1 1.6 39 2.7 17.8 1.2 47 3.2 64.8 4.5 17.8 1.2 43.2 3 56.4 3.9 13.2 0.9 39 2.7 57.4 4 18.3 1.3 45.1 2.5 59.4 2.7 24.5 0.3 26.4 0.2 34.5-2 4.7-1.3 10.8-3.5 13.5-4.8 2.8-1.4 7.8-5 11.2-8.1 3.4-3.1 7.6-8.3 9.4-11.5 1.8-3.2 4-9.2 5-13.3 1.2-5.2 2.2-17.4 3.3-41.2 0.9-18.6 2.9-71.4 4.3-117.4 1.5-45.9 3.9-119.7 5.3-164.1 1.5-44.3 2.6-88 2.4-97.2-0.1-9.1-0.9-20.1-1.7-24.3-0.8-4.3-2.6-10.7-4-14.3-1.7-4.5-4.3-8.4-8.4-12.8-3.2-3.5-8.3-8-11.3-10-3-2-9.3-5.1-14.1-7-5.3-2-12.1-3.7-17.4-4.3-5-0.6-35.8-1.2-72.7-1.4-35.1-0.2-83-0.1-106.4 0.1zm275.4 100.4c-0.4 6.9-1.8 42.2-3 78.6-1.3 36.4-3.6 105.6-5.3 153.8-1.6 48.2-2.6 88.1-2.2 88.5 0.4 0.5 2.9-0.9 5.7-3.1 2.7-2.2 12.9-10.6 22.6-18.7 9.6-8.2 20-17 23-19.8l5.5-4.9c1.6-13.9 3-39.6 4.1-66.1 1-26.5 2.7-75.1 3.7-107.9l1.7-59.7c-26.3-24.8-38.7-36.8-44.5-42.6l-10.5-10.5zm282.4 12.4c-2.7 0.8-7.5 2.4-10.5 3.7-3.1 1.3-8.1 4-11.1 5.9-3.1 2-8.7 6.6-12.6 10.3-3.8 3.7-9.1 9.6-11.7 13.2-2.6 3.5-6.4 9.8-8.6 13.8-2.1 4.1-5.3 11.7-7.1 16.9-1.8 5.2-3.8 12.3-4.5 15.9-0.8 3.9-1.2 12.6-1 21.9 0.2 13.2 0.5 16.5 2.7 23.4 1.4 4.3 3.8 10.4 5.4 13.4 1.6 3.1 5.5 8.8 8.7 12.8 3.2 4 6 7.1 6.3 7 0.3-0.2-1.6-4.5-4.2-9.7-2.7-5.3-5.8-13.7-7.2-19-2-8.1-2.3-11.6-2-24.1 0.1-8.1 0.8-18.2 1.5-22.4 0.6-4.2 2.6-11.6 4.3-16.4 1.7-4.8 5.1-12.6 7.6-17.3 2.5-4.8 7.3-12.3 10.7-16.6 3.4-4.4 9.3-10.4 13.1-13.5 3.9-3 9.3-6.9 12.1-8.6 2.7-1.7 8.6-4.2 13-5.6 4.5-1.3 11.5-2.7 15.6-3 6.1-0.4 7-0.7 5-1.5-1.3-0.5-6.5-1.1-11.4-1.4q-9-0.5-14.1 0.9zm-914.7 14.1c-3.3 3.9-8.4 10.3-11.3 14.1-2.8 3.8-5.9 8.5-6.7 10.4-1.3 3-1.2 9 0.4 48.7 1.1 24.9 2.7 64.9 3.6 88.8l1.8 43.6 29.4 40.5c-0.5-23.9-2.3-72.7-4.3-123.9-2-51.2-4-100.5-4.4-109.7-0.4-9.2-0.7-17.3-0.7-18.2 0.1-0.8-0.3-1.5-0.9-1.5-0.5 0-3.6 3.3-6.9 7.2zm923.4 1.8c-2.2 0.7-7.4 3-11.5 5.1-4.8 2.5-10.2 6.4-14.8 10.8-4 3.8-9.5 10.2-12.3 14.3-2.7 4.1-6.4 10.6-8.3 14.4-1.8 3.8-4.4 10.3-5.7 14.4-1.9 5.9-2.5 10.8-3.1 23.8-0.7 13-0.5 17.9 0.7 23.4 0.8 3.8 3.2 10.7 5.3 15.2 2.8 6.1 5.5 10 10.4 15.1 4.1 4.2 8.8 7.9 12.5 9.7 5 2.5 7.5 3.1 15.4 3.5 8.7 0.4 10.1 0.2 15.6-2.2 3.3-1.5 8.7-4.6 12.1-6.9 3.3-2.3 8.8-7 12.1-10.5 3.3-3.5 8.2-9.4 10.7-13.3 2.6-3.8 6.4-10.5 8.5-14.8 2.2-4.4 5.2-12 6.7-16.9 1.5-4.9 3.4-13.6 4.1-19.3 1-7.8 1.2-12.7 0.5-18.9-0.5-4.7-1.9-11-3.1-14-1.2-3-3.6-7.7-5.3-10.5-1.7-2.7-6.4-8.1-10.4-12-5.8-5.7-8.3-7.4-13.1-8.9-3.3-1.1-9.8-2.1-14.5-2.4-5.2-0.2-10 0.1-12.5 0.9zm-226 13.2c-0.3 2.3-1.7 38.7-3.1 80.8-1.4 42.1-2.8 92.8-3.2 112.6-0.4 23.1-0.3 36.3 0.3 36.6 0.6 0.3 1.3 0.2 1.8-0.1 0.4-0.3 1.3-15.9 2.1-34.5 0.7-18.7 2.4-71.3 3.6-116.8 2.1-75.5 2.2-82.8 0.8-82.8-1.2 0-1.8 1.2-2.3 4.2zm-272 37.7c2.4 0 7.5 0.4 11.2 1 3.7 0.5 10.2 2.4 14.4 4.2 4.2 1.7 10.3 5.1 13.6 7.4 3.2 2.3 8.3 6.9 11.3 10.3 2.9 3.3 6.8 8.4 8.5 11.4 1.7 2.9 4.3 8.2 5.7 11.8 1.3 3.6 3.1 8.7 3.7 11.5 0.7 2.7 1.5 8.8 1.7 13.4 0.4 7.6 0.2 8.9-2 12.9-1.3 2.5-3.5 5-4.9 5.7-1.9 0.9-17 1.1-63 0.8-59.2-0.4-60.5-0.4-62.6-2.4-1.3-1.1-3-3.3-3.9-4.8-1.4-2.1-1.7-4.6-1.4-11.7 0.2-5.4 1.3-12.1 2.6-16.9 1.2-4.4 4.1-11.5 6.4-15.9 2.2-4.3 6.3-10.6 9-13.8 2.7-3.3 7.9-8.1 11.5-10.7 3.6-2.6 9.7-6.3 13.6-8.1 3.9-1.9 10-4 13.5-4.8 3.6-0.7 8.6-1.3 11.1-1.3zm-258 8.1c3-0.1 8.2 0.4 11.5 0.9 3.3 0.6 9.1 2.6 12.9 4.5 4.2 2.1 9.8 6.1 14.3 10.4 4 3.8 9.2 9.8 11.5 13.4 2.3 3.5 5.4 9.6 7 13.6 1.7 4.4 3.2 10.8 3.8 16.4 0.5 5.1 0.6 10.9 0.2 13-0.4 2.1-1.9 4.9-6.3 9l-51.9-1c-31.9-0.6-53.1-1.4-54.9-2-1.7-0.6-3.9-2.3-4.9-3.9-1.3-2-1.9-5.1-2.1-11.2-0.2-6 0.2-10.4 1.5-14.9 0.9-3.6 3.3-9.6 5.2-13.4 1.9-3.8 6.2-10 9.5-13.8 3.3-3.8 8.7-8.8 12.1-11.2 3.3-2.3 8.5-5.2 11.6-6.3 3-1 7.3-2.3 9.5-2.7 2.2-0.4 6.5-0.8 9.5-0.8zm83.3 162.5l17 0.8c9.3 0.4 26.8 1.4 38.9 2.3 12.1 0.9 23.5 2 25.4 2.5 1.9 0.6 4.6 2.2 5.9 3.6 2.1 2.2 2.5 3.6 2.4 8.8-0.2 5.1-0.9 7.5-4.2 14-2.8 5.4-5.9 9.7-9.8 13.4-3.2 3.1-8.5 6.8-12.2 8.5-3.6 1.7-9.3 3.6-12.6 4.2-3.6 0.7-8 0.9-11 0.4-2.7-0.4-7.4-1.6-10.4-2.7-3-1-7.2-3-9.4-4.3-2.2-1.3-6.1-4.5-8.6-7-2.6-2.5-6.2-6.9-8.1-9.8-1.8-2.9-4.4-8.4-5.7-12.2-1.3-3.9-2.3-9-2.3-11.5 0.1-3 0.9-5.5 2.4-7.7zm434.5 30.8c-1.8 1.5-3.8 3.6-4.4 4.7-1 1.9-0.9 1.8 1.9-0.2 1.7-1.2 4.4-3.3 6-4.6 2.3-1.9 2.6-2.5 1.4-2.6-0.9 0-3.1 1.2-4.9 2.7zm329.4 154.9c0.1 0-0.8 2.5-2 5.6-1.2 3.2-3.2 8-4.4 10.7-1.3 2.7-4.3 7.8-6.8 11.4-2.5 3.5-6.4 8.4-8.6 10.8-2.3 2.3-7.5 6.7-11.5 9.6-4 2.9-9.9 6.5-13.1 8-3.2 1.6-11.8 4.9-32.5 11.9l-3.2-2.5c-1.8-1.3-5.4-3.4-13.1-6.8l6-2.2c5.1-1.9 7.3-2.2 13.1-1.7 6.4 0.5 7.2 0.4 10.2-2 1.9-1.4 3.6-3.4 3.9-4.3 0.3-1 3.8-3.4 7.8-5.4 4-2.1 10.6-6.3 14.6-9.4 4-3.1 9.1-7.8 11.2-10.3 2.2-2.6 5.8-7.9 12.2-18.9l8-2.2c4.4-1.2 8.1-2.2 8.2-2.3zm-870 12.4c-0.1 0.6 3.4 5.9 7.7 11.9 4.4 5.9 9.1 12 10.5 13.5 1.4 1.6 3.4 3.3 4.3 3.8 1 0.5 5.2 1.4 9.5 2 4.2 0.6 33.1 2.8 64.1 4.9 31 2.1 64 4.4 73.3 5 9.3 0.6 29.3 1.9 44.4 2.9 15.1 0.9 34 2.2 41.9 2.7 13.9 0.9 14.6 0.9 17.5-1.1 1.7-1.1 8.9-6.8 16.1-12.5 7.1-5.7 12.9-10.7 12.9-11.1 0-0.5-0.8-1-1.8-1.3-0.9-0.2-8.9-0.9-17.7-1.6-8.7-0.6-43.3-3.1-76.8-5.5-33.5-2.4-66.2-4.7-72.8-5.1-6.6-0.4-36.2-2.4-65.9-4.5-29.6-2.1-56.8-4.1-60.5-4.5-4.5-0.4-6.6-0.3-6.7 0.5z"/>
	<path id="Shape 2" fill-rule="evenodd" class="s0" d="m1050.1 697.7c3.5 0.1 12.3 1.1 19.5 2.3 7.2 1.1 17.7 3.2 23.3 4.6 5.6 1.4 14.3 3.8 19.3 5.3 5 1.6 13.7 4.7 19.2 6.9 5.6 2.2 13.8 6 18.2 8.3 4.5 2.3 11.5 6.7 15.7 9.7 4.1 3.1 10.7 9.2 14.5 13.6 4.3 5 8.3 11 10.6 15.9 2 4.3 4.5 11.3 5.5 15.6 1.7 6.9 1.8 9.8 1 25.1-0.7 12.1-1.6 19.8-3.1 25.8-1.1 4.7-3.4 12.4-5.1 17.1-1.6 4.7-4.8 11.9-7.1 16-2.3 4.1-6.4 10.1-9 13.3-2.7 3.1-7.9 8-11.7 10.7-3.8 2.7-10.9 6.7-15.9 8.7-5 2.1-18 6.2-28.9 9.2-10.9 2.9-22.5 6.5-25.8 8-3.2 1.5-7.8 4.6-10.1 6.9-2.3 2.3-5.6 6.6-7.2 9.7-1.7 3.1-4.3 9.5-6 14.2-1.6 4.7-3 9.1-3 9.9 0 0.8-0.4 2-0.9 2.6-0.5 0.8-8.6-1.1-30.7-7.2-16.4-4.5-30-8.4-30.1-8.5-0.1-0.1 0.7-3.2 1.6-6.9 1-3.7 3.6-11.8 5.9-18 2.2-6.2 6.4-15.6 9.3-20.7 2.9-5.1 7-11.3 9.2-13.6 2.2-2.3 6.3-5.9 9.1-8 2.8-2.1 9.1-5.4 14.1-7.5 5-2 16-5.8 24.5-8.3 8.5-2.6 18.3-6 21.8-7.4 3.5-1.5 8.8-4.8 11.8-7.3 2.9-2.5 6.8-7.1 8.7-10.4 1.9-3.2 4.5-8.9 5.8-12.7 1.3-3.7 2.8-11.1 3.4-16.4 0.9-7.6 0.8-10.8-0.3-15.4-1.1-4.4-2.6-7.2-5.8-10.9-2.5-2.8-6.9-6.6-10-8.4-3.1-1.8-9.1-4.6-13.3-6.1-4.2-1.6-12-3.8-17.4-5-6.7-1.6-12.3-2.2-18.5-2.2-5.7 0-10.4 0.6-13.3 1.7-2.5 1-6.5 3.3-9 5.2-2.4 1.9-6.4 6.4-8.8 10-2.4 3.6-6 10.1-7.9 14.5-2 4.4-4 8.1-4.4 8.3-0.5 0.1-15.2-3.6-32.7-8.3-17.5-4.7-32-8.6-32.2-8.7-0.1-0.2 1.1-4.5 2.8-9.7 1.7-5.2 4.6-12.7 6.4-16.5 1.9-3.9 4.8-9.6 6.6-12.7 1.8-3.1 5.2-8.1 7.6-11.2 2.3-3 6.8-7.9 10-10.8 3.1-3 8.9-7.2 12.8-9.5 3.9-2.3 9.7-5 13-6.1 3.3-1 8.7-2.4 11.9-3 3.3-0.7 8.9-1.4 12.4-1.6 3.5-0.2 9.2-0.3 12.7-0.1zm-39.8 276.3c3.1 0.1 8.8 1 12.7 2 3.8 1 10 3 13.7 4.3 3.7 1.4 8.8 4.2 11.4 6.2 2.8 2.1 5.6 5.4 6.9 8 1.4 3 2.2 6.5 2.2 10.7 0.1 4.1-0.8 9.6-2.4 15.8-1.4 5.2-4 12-5.7 15.1-1.8 3.2-4.8 6.8-7.1 8.4-2.2 1.6-5.7 3.2-7.9 3.7-2.2 0.5-6.8 0.7-10.3 0.6-3.5-0.2-9.9-1.2-14.1-2.3-4.3-1.1-11-3.4-14.9-5.1-4-1.7-8.9-4.7-11-6.6-2-1.9-4.4-5.4-5.3-7.8-1.1-3-1.5-6.6-1.2-11.5 0.2-4 1.5-11 2.9-15.5 1.4-4.6 3.5-10.1 4.8-12.3 1.2-2.2 3.4-5.3 4.7-7 1.4-1.6 4-3.6 5.8-4.4 1.8-0.8 4.6-1.7 6.2-2 1.7-0.3 5.5-0.5 8.6-0.3z"/>
</svg>