<svg version="1.2" xmlns="http://www.w3.org/2000/svg" viewBox="0 0 2000 2000" width="2000" height="2000">
	<title>New Project</title>
	<style>
		.s0 { fill: #0d6efd } 
	</style>
	<path id="Layer 5" fill-rule="evenodd" class="s0" d="m1010.7 0.2c26.2 0.2 51.8 1 64.2 2.1 11.4 1 27.8 2.5 36.4 3.5 8.6 0.9 21.1 2.4 27.9 3.4 6.7 0.9 18.6 2.7 26.2 4 7.7 1.3 19 3.3 25.2 4.5 6.1 1.2 16.9 3.4 24 4.9 7.1 1.5 18.1 4.2 24.6 5.8 6.4 1.7 12.2 3.2 12.8 3.3 0.7 0.1 6.4 1.7 12.9 3.4 6.5 1.8 16.8 4.8 22.9 6.6 6.1 1.9 13.7 4.2 16.8 5.1 3 0.9 11.8 3.7 19.5 6.3 7.7 2.5 24 8.4 36.3 13 12.3 4.7 29.2 11.5 37.5 15.1 8.3 3.6 25.9 11.8 39.1 18.1 13.2 6.4 26 12.8 28.5 14.2 2.4 1.4 7.7 4.4 11.7 6.5 4 2.1 9.5 5.2 12.3 6.7 2.8 1.6 7 4 9.5 5.5 2.5 1.4 6.5 3.7 8.9 5.2 2.5 1.4 10.7 6.4 18.2 11.1 7.5 4.8 13.9 8.7 14.2 8.7 0.3 0 3.9 2.3 7.9 5.1 4 2.8 7.5 5.1 7.8 5.1 0.3 0 2.4 1.4 4.6 3.1 2.3 1.7 5.7 4.1 7.7 5.4 2 1.2 5.8 3.7 8.5 5.5 2.7 1.8 9.1 6.4 14.2 10.2 5.1 3.8 14.7 11.2 21.2 16.3 6.6 5.1 14.1 11 16.8 13 2.7 2.1 9.8 7.8 15.7 12.7 5.9 4.9 16.7 14.3 24.1 21 7.3 6.6 22.1 20.6 32.9 31 10.8 10.4 24.7 24.4 30.9 31.2 6.2 6.7 15.5 17.1 20.7 23 5.2 5.9 14.5 16.9 20.7 24.4 6.2 7.5 16.3 20.2 22.4 28.3 6.2 8.1 16.5 22.2 22.9 31.2 6.4 9.1 16.4 24.1 22.3 33.5 5.9 9.4 15.8 25.4 21.9 35.7 6.1 10.3 13.1 22.3 15.5 26.7 2.3 4.3 6.2 11.5 8.6 15.9 2.3 4.3 9 17.6 14.7 29.5 5.8 11.8 14.3 30.7 19.1 41.9 4.7 11.3 11.1 27.1 14.2 35.2 3.1 8.1 7 18.8 8.7 23.8 1.8 5 5.3 15.7 7.9 23.8 2.5 8.1 5.3 17.1 6.1 19.9 0.8 2.8 3.8 13.5 6.6 23.8 2.8 10.3 6.1 22.5 7.2 27.2 1.2 4.7 2.9 12.4 3.9 17 1.1 4.7 2.6 11.6 3.5 15.4 0.8 3.7 2.6 12.1 3.8 18.7 1.3 6.5 3.6 20 5.1 30 1.5 10 3 19.7 3.3 21.6 0.3 1.9 1.3 10.3 2.3 18.7 0.9 8.4 2.5 24.2 3.4 35.2 1 10.9 2 39.5 2.4 63.5 0.4 28.1 0.2 52.3-0.7 68-0.7 13.5-2.3 34.4-3.5 46.6-1.2 12.1-2.7 25.9-3.3 30.6-0.7 4.7-2.5 16.4-4 26.1-1.5 9.6-4.3 25.2-6.2 34.6-1.9 9.3-3.9 18.8-4.3 21-0.5 2.1-1.9 8.8-3.2 14.7-1.3 5.9-5.2 21-8.6 33.5-3.5 12.4-6.9 24.9-7.7 27.8-0.8 2.8-3.6 11.7-6.1 19.8-2.6 8.1-6.1 18.8-7.9 23.8-1.7 5-5.6 15.7-8.7 23.8-3.1 8.2-9.5 24-14.2 35.2-4.8 11.2-13.3 30.1-19.1 42-5.7 11.8-12.4 25.1-14.7 29.5-2.4 4.3-6.3 11.5-8.6 15.9-2.4 4.3-8.9 15.5-14.4 24.9-5.5 9.4-11.1 18.8-12.5 21-1.4 2.2-7.8 12.1-14.2 22.1-6.5 10-16.1 24.3-21.4 31.8-5.3 7.5-16.2 22-24.1 32.3-8 10.3-19.9 25.1-26.6 33-6.6 7.9-19.6 22.6-28.8 32.7-9.2 10.1-25.6 26.9-36.4 37.3-10.7 10.4-25.6 24.3-32.9 30.9-7.4 6.6-17.3 15.3-22.2 19.3-4.8 4-10.9 9-13.4 11-2.5 2-5.9 4.6-7.4 5.6-1.5 1.1-7 5.4-12.1 9.4-5.2 4.1-11.2 8.8-13.5 10.4-2.2 1.7-6.5 4.9-9.6 7.1-3.1 2.2-8.3 6.1-11.7 8.6-3.4 2.5-7.7 5.4-9.5 6.4-1.9 1-5.3 3.3-7.6 5.1-2.3 1.8-4.4 3.3-4.7 3.3-0.3 0-3.8 2.3-7.8 5.1-4 2.8-7.6 5.1-7.9 5.1-0.3 0-6.4 3.7-13.7 8.3-7.2 4.6-15.3 9.6-18.1 11.2-2.8 1.5-7 4-9.5 5.5-2.5 1.4-6.7 3.8-9.5 5.4-2.8 1.6-9.6 5.3-15.1 8.4-5.5 3-17.8 9.4-27.4 14.1-9.5 4.7-26.6 12.8-38 17.9-11.3 5.2-29.4 12.9-40.2 17-10.7 4.2-28.3 10.6-39.1 14.3-10.7 3.6-22.1 7.3-25.1 8.2-3.1 1-10.7 3.2-16.8 5.1-6.1 1.9-16.4 4.8-22.9 6.6-6.5 1.8-12.2 3.3-12.9 3.4-0.6 0.1-6.4 1.6-12.8 3.3-6.5 1.7-17.5 4.3-24.6 5.8-7.1 1.5-17.9 3.8-24 5-6.2 1.2-17.5 3.2-25.2 4.5-7.6 1.2-19.5 3-26.2 4-6.8 0.9-21.9 2.7-33.5 3.9-11.7 1.2-29.3 2.9-39.1 3.7-11.1 0.9-36.6 1.4-67.1 1.4-28.9 0-56.3-0.6-66.5-1.4-9.5-0.8-26.8-2.5-38.5-3.7-11.7-1.2-27-3-34.1-4-7.1-1-20.4-3-29.6-4.6-9.2-1.5-23.1-4.1-30.7-5.7-7.7-1.5-20.3-4.3-28-6.2-7.7-1.8-20.2-5.1-27.9-7.2-7.7-2.1-15.5-4.1-17.3-4.5-1.9-0.3-9.2-2.4-16.2-4.7-7.1-2.2-14.6-4.6-16.8-5.2-2.1-0.6-12.7-4.1-23.5-7.7-10.7-3.6-28.3-10-39.1-14.2-10.7-4.2-28.8-11.9-40.2-17.1-11.4-5.1-28.5-13.2-38-17.9-9.5-4.7-21.8-11.1-27.4-14.1-5.5-3.1-12.3-6.8-15-8.4-2.8-1.5-7.1-4-9.5-5.4-2.5-1.5-6.8-4-9.5-5.5-2.8-1.6-11-6.6-18.2-11.2-7.2-4.6-13.4-8.3-13.7-8.3-0.3 0-1.9-1-3.6-2.1-1.7-1.2-11.6-7.9-22.1-15-10.4-7-27.5-19.3-38-27.2-10.4-7.9-25.3-19.5-32.9-25.8-7.7-6.2-20.8-17.4-29.1-24.8-8.3-7.4-23.6-21.7-34.1-31.8-10.4-10-28.3-28.7-39.8-41.4-11.4-12.7-25-28.2-30.2-34.4-5.1-6.3-12.2-14.9-15.7-19.3-3.4-4.4-7.5-9.5-8.9-11.5-1.4-2-7.9-10.7-14.4-19.3-6.4-8.6-17.3-24.1-24-34.4-6.8-10.3-16.7-25.9-22-34.6-5.2-8.7-11.8-19.7-14.5-24.4-2.7-4.7-6.9-12.1-9.3-16.4-2.4-4.4-6.3-11.6-8.6-15.9-2.4-4.4-9-17.7-14.8-29.5-5.7-11.9-14.3-30.8-19-42-4.8-11.2-11.5-28.1-15.1-37.4-3.5-9.4-8.2-22.4-10.4-29-2.2-6.5-5.5-16.7-7.3-22.6-1.8-6-4.3-14.4-5.6-18.8-1.3-4.3-4.9-17.1-7.9-28.3-3-11.2-6.3-24.5-7.4-29.5-1-5-2.3-10.9-2.7-13-0.5-2.2-2.2-10.7-3.9-18.8-1.6-8.1-4.5-23.6-6.2-34.6-1.8-10.9-4-25.7-5-32.9-0.9-7.1-2.4-21.4-3.3-31.7-1-10.3-2.3-27.2-2.9-37.5-0.6-10.2-1.1-35.3-1.1-55.5 0-20.5 0.7-48.3 1.7-62.4 0.9-14.1 2.1-30.6 2.7-36.9 0.7-6.2 1.4-13.4 1.7-15.9 0.3-2.5 1.4-10.1 2.3-17 0.9-6.8 2.9-19.9 4.4-28.9 1.5-9.1 4.1-23.1 5.7-31.2 1.7-8.1 3.4-16.5 3.9-18.7 0.4-2.2 1.4-6.5 2-9.7 0.6-3.1 2.5-11 4.1-17.5 1.7-6.6 3.2-13 3.4-14.2 0.3-1.3 1-3.6 1.5-5.1 0.6-1.6 2.2-6.9 3.5-11.9 1.3-5 4.6-16.5 7.4-25.6 2.7-9 6.8-21.8 9-28.3 2.2-6.6 6.9-19.6 10.4-28.9 3.6-9.4 10.3-26.2 15.1-37.5 4.7-11.2 13.5-30.6 19.6-43.1 6.1-12.5 12.7-25.7 14.7-29.5 2.1-3.7 5.5-9.8 7.5-13.6 2.1-3.7 5.6-10.1 7.9-14.2 2.2-4 6.7-11.5 9.9-16.7 3.1-5.1 5.7-9.6 5.7-9.9 0-0.3 1.5-2.8 3.2-5.4 1.8-2.7 9.5-14.5 17.2-26.4 7.7-11.8 20.1-30 27.7-40.2 7.5-10.3 18.6-24.6 24.5-31.8 5.9-7.2 11.9-14.6 13.3-16.5 1.5-1.8 7.5-9 13.4-15.8 5.9-6.8 17.7-19.8 26.1-28.9 8.3-9.1 24.7-25.5 36.3-36.5 11.6-11 26.1-24.5 32.2-29.9 6.2-5.5 17-14.6 24-20.4 7.1-5.8 21.9-17.4 33-25.8 11.1-8.4 28.7-21 39.1-28.1 10.5-7 20.4-13.8 22.1-14.9 1.7-1.2 3.3-2.1 3.6-2.1 0.3 0 6.5-3.8 13.7-8.4 7.2-4.5 15.4-9.6 18.2-11.1 2.7-1.6 7-4.1 9.5-5.5 2.4-1.5 6.4-3.8 8.9-5.2 2.4-1.3 7.5-4.1 11.2-6.1 3.7-2 9.7-5.3 13.4-7.4 3.7-2.1 16.5-8.5 28.5-14.2 12-5.8 29-13.7 38-17.6 8.9-3.9 26.2-10.9 38.5-15.6 12.3-4.7 28.6-10.5 36.3-13 7.7-2.5 19.8-6.4 26.8-8.6 7.1-2.3 16.2-4.9 20.2-5.9 4-1 10.7-2.9 15-4.2 4.3-1.2 8.6-2.4 9.5-2.6 1-0.2 7-1.7 13.4-3.4 6.5-1.7 17.6-4.3 24.6-5.8 7.1-1.5 17.9-3.7 24.1-4.9 6.1-1.2 17.4-3.3 25.1-4.5 7.7-1.3 19.5-3.1 26.3-4.1 6.7-0.9 21.8-2.7 33.5-3.9 11.7-1.2 29.3-2.7 39.1-3.4 9.8-0.7 21.4-1.4 25.7-1.6 4.3-0.2 27.4-0.3 51.4 0zm-49.2 116.9c-4.3 0.2-15.3 0.9-24.6 1.5-9.2 0.6-24 1.9-32.9 2.8-8.9 1-20 2.3-24.6 3-4.6 0.6-17.7 2.7-29.1 4.5-11.3 1.9-24.2 4.1-28.5 4.9-4.3 0.9-11.5 2.4-16.2 3.4-4.6 0.9-14.4 3.3-21.7 5.2-7.4 2-14.2 3.7-15.1 3.9-1 0.2-7.5 2-14.6 3.9-7 1.9-22.4 6.7-34 10.8-11.7 4-26 9.1-31.9 11.3-5.8 2.1-16.6 6.3-24 9.3-7.4 3-21.5 9.1-31.3 13.6-9.8 4.6-22.6 10.5-28.5 13.2-5.8 2.7-12.9 6.3-15.6 7.9-2.8 1.7-7.6 4.3-10.6 5.8-3.1 1.5-10.2 5.3-15.7 8.3-5.5 2.9-12.7 7.1-15.9 9.2-3.2 2.1-6.1 3.8-6.4 3.8-0.3 0-3.2 1.7-6.5 3.8-3.2 2.1-9.3 6-13.6 8.8-4.3 2.7-8.7 5.5-9.8 6.1-1 0.6-7.6 5.1-14.5 10-7 4.9-15.1 10.7-18.2 12.8-3.1 2.2-9.6 6.9-14.4 10.4-4.8 3.6-11.9 9.1-15.6 12.2-3.8 3.1-9.7 7.8-13 10.4-3.4 2.6-14 11.7-23.5 20.3-9.5 8.6-24 22-32.2 29.8-8.2 7.9-22.9 23-32.6 33.6-9.7 10.6-22.4 24.9-28.1 31.8-5.8 6.9-15.3 18.6-21.1 26.1-5.9 7.5-15.2 20-20.8 27.8-5.5 7.8-15.1 21.8-21.3 31.1-6.1 9.4-12.9 19.9-15 23.3-2.2 3.4-5 8-6.3 10.2-1.2 2.2-3.3 5.9-4.6 8.2-1.3 2.4-3.4 6.2-4.8 8.5-1.3 2.4-3.5 6.3-4.9 8.8-1.4 2.5-4.1 7.6-6.1 11.4-1.9 3.7-6.6 12.9-10.3 20.4-3.7 7.5-10.5 22-15 32.3-4.6 10.3-12.1 28.2-16.6 39.7-4.5 11.6-11 29.4-14.5 39.7-3.5 10.3-8 24.4-10.1 31.2-2 6.9-5.2 18.4-7.1 25.5-1.9 7.2-5.1 21.3-7.2 31.2-2.2 10-5.2 25.1-6.8 33.5-1.6 8.4-3.6 20.4-4.5 26.7-0.9 6.2-2.4 18.2-3.3 26.6-1 8.4-2.5 24.3-3.5 35.2-0.9 10.9-2 34.6-2.4 52.7-0.4 19.7-0.1 43.2 0.6 58.4 0.7 14.1 2.1 33.5 3 43.1 1 9.7 3 26.6 4.5 37.5 1.5 10.9 4 27.2 5.5 36.3 1.6 9 4.4 23.3 6.3 31.7 1.9 8.5 5.6 23.8 8.2 34.1 2.7 10.3 5.6 21.2 6.5 24.4 0.9 3.1 3.7 12 6.2 19.8 2.5 7.8 6.8 20.3 9.5 27.8 2.7 7.5 7.4 20 10.5 27.8 3.1 7.8 8.6 21.1 12.3 29.5 3.7 8.4 11.7 25.5 17.9 38 6.1 12.5 12.6 25.5 14.5 28.9 1.8 3.4 5.9 10.6 8.9 15.9 3 5.3 6.9 11.8 8.5 14.4 1.7 2.7 3 5.1 3 5.4 0 0.3 6.1 9.9 13.5 21.3 7.5 11.4 15.4 23.3 17.6 26.4 2.2 3.1 8.9 12.3 14.9 20.4 5.9 8.1 16.2 21.4 22.7 29.5 6.6 8.1 18.9 22.6 27.3 32.3 8.5 9.7 25.2 27.3 37.1 39.2 11.9 11.8 27.7 26.9 35 33.4 7.3 6.6 19.2 16.8 26.4 22.7 7.2 5.9 18.4 14.9 24.9 19.8 6.5 5 14.7 11.3 18.3 13.9 3.5 2.6 10.5 7.6 15.4 11.2 4.9 3.5 10.2 7.1 11.7 8 1.6 0.9 5.8 3.6 9.5 6 3.7 2.5 13.8 8.8 22.4 14.1 8.6 5.3 20.4 12.2 26.2 15.5 5.9 3.2 14.7 8 19.6 10.6 4.9 2.7 9.9 5.4 11.2 6.2 1.2 0.7 10.5 5.2 20.6 9.9 10.2 4.8 24.5 11.4 31.9 14.6 7.4 3.3 20.9 8.9 30.1 12.6 9.3 3.6 27.9 10.3 41.4 15 13.5 4.6 29.1 9.6 34.6 11.2 5.6 1.5 15.9 4.3 22.9 6.2 7.1 1.9 17.4 4.5 22.9 5.7 5.6 1.3 13.6 3.1 17.9 4 4.3 0.9 14.9 2.9 23.5 4.4 8.6 1.6 20.4 3.6 26.2 4.5 5.9 0.8 20 2.6 31.3 3.9 11.4 1.3 23.2 2.6 26.3 2.9 3.1 0.3 13.1 1.1 22.3 1.7 9.3 0.7 34.7 1.2 56.5 1.2 21.8 0 47.4-0.6 57-1.2 9.5-0.6 27.1-2.2 39.1-3.5 12-1.2 24.8-2.7 28.5-3.3 3.7-0.5 12.2-1.8 19-2.8 6.7-1 22.3-3.9 34.6-6.3 12.3-2.4 30.4-6.5 40.2-9.1 9.9-2.5 18.4-4.7 19-4.9 0.6-0.1 6.2-1.7 12.3-3.4 6.2-1.8 19-5.8 28.5-8.9 9.5-3.2 26.4-9.2 37.4-13.4 11.1-4.2 24.4-9.4 29.7-11.6 5.2-2.2 17.7-7.8 27.9-12.5 10.1-4.7 24-11.3 30.7-14.7 6.8-3.4 21.4-11.2 32.4-17.3 11.1-6 21.5-12 23.2-13.2 1.7-1.2 3.3-2.1 3.6-2.1 0.3 0 5-2.9 10.4-6.4 5.3-3.5 11.5-7.5 13.7-8.8 2.1-1.3 9.4-6.2 16.2-10.8 6.7-4.6 20-14.3 29.6-21.5 9.5-7.2 22.1-16.9 27.9-21.6 5.8-4.7 16.4-13.6 23.5-19.8 7-6.1 21.9-19.8 32.9-30.3 11.1-10.6 25.2-24.6 31.3-31.3 6.2-6.7 16.9-18.6 23.9-26.4 7-7.9 14.6-16.8 16.9-19.9 2.3-3.2 6.7-8.6 9.7-12.2 2.9-3.6 7.8-9.7 10.7-13.6 3-3.9 8-10.7 11.2-15.1 3.2-4.3 7.4-10.2 9.3-13 1.9-2.8 8.2-12.3 14-21 5.9-8.7 14.4-22.3 19.1-30.1 4.6-7.8 9.6-16.2 10.9-18.7 1.4-2.5 5.1-9.1 8.2-14.7 3.1-5.6 9.8-18.9 15-29.5 5.2-10.6 11.8-24.4 14.5-30.6 2.8-6.3 7.3-16.8 10-23.3 2.8-6.6 7.7-19.1 11-27.8 3.2-8.7 8.4-23.3 11.5-32.3 3-9.1 6.8-20.8 8.4-26.1 1.6-5.3 4.4-15 6.2-21.6 1.8-6.5 5.3-21.1 7.8-32.3 2.5-11.2 6.1-29.1 7.9-39.7 1.9-10.6 4.6-28.7 6.1-40.3 1.5-11.5 3.7-30.6 4.8-42.5 1.6-17.2 2-32.2 2-74.3 0-34.5-0.5-58.2-1.4-68.6-0.8-8.8-2.4-24.6-3.7-35.2-1.2-10.6-3.6-28.7-5.5-40.3-1.8-11.5-5.1-29.4-7.2-39.7-2.2-10.3-5.5-24.5-7.4-31.7-1.9-7.2-3.6-13.8-3.8-14.8-0.2-0.9-2-7.3-3.9-14.1-2-6.9-6.5-21.2-10-31.8-3.6-10.6-9.4-26.9-12.9-36.3-3.6-9.4-9.6-24.4-13.5-33.5-3.9-9-10.7-24.3-15.2-34-4.6-9.7-11.7-24-15.9-31.8-4.2-7.8-8.9-16.3-10.3-19-1.5-2.6-4-7.2-5.6-10.2-1.7-2.9-6.1-10.5-9.9-16.7-3.8-6.2-10.6-17-15-23.8-4.5-6.9-11.5-17.3-15.6-23.1-4.1-5.8-13.9-19.1-21.9-29.5-8-10.4-16.6-21.4-19-24.5-2.5-3-9.8-11.7-16.2-19.2-6.5-7.5-20.3-22.5-30.8-33.4-10.4-10.9-26-26.3-34.6-34.3-8.6-7.9-20.4-18.6-26.3-23.7-5.8-5.1-17.9-15-26.8-22.1-8.9-7.1-24.2-18.7-34.1-25.8-9.8-7.1-24.5-17.4-32.6-22.8-8.2-5.4-15.1-9.9-15.4-9.9-0.3 0-1.9-0.9-3.6-2.1-1.7-1.2-7.6-4.8-13.2-8.1-5.5-3.3-15.3-8.8-21.8-12.2-6.4-3.5-13.5-7.4-15.6-8.8-2.2-1.3-12-6.3-21.8-11-9.8-4.8-24.9-11.8-33.5-15.7-8.6-3.9-23.7-10.2-33.5-14.2-9.9-3.9-29.7-11.2-44.2-16.2-14.4-5-32-10.7-39.1-12.6-7-1.9-14.6-4-16.7-4.6-2.2-0.6-10.5-2.7-18.5-4.5-8-1.9-16.5-3.9-19-4.5-2.4-0.6-7-1.6-10-2.2-3.1-0.6-9.9-1.9-15.1-2.9-5.2-0.9-14.3-2.5-20.1-3.4-5.9-1-16.4-2.5-23.5-3.4-7.1-1-22.1-2.7-33.5-4-11.4-1.2-31.5-2.8-44.7-3.4-13.2-0.6-35.9-1.1-50.3-0.9-14.4 0.1-29.8 0.3-34.1 0.5zm-275.4 497.8c10.3 0.3 18 1.1 24.6 2.7 5.2 1.3 12.2 3.5 15.6 4.9 3.4 1.4 10.2 4.7 15.1 7.5 4.9 2.7 11.4 6.9 14.5 9.2 3.1 2.3 9.4 8 14 12.7 4.6 4.7 11.1 12.6 14.5 17.5 3.3 4.9 8.4 14.1 11.4 20.3 2.9 6.3 6.3 15.2 7.6 19.9 1.3 4.7 3.1 13.3 4 19.3 0.8 5.9 1.6 15.1 1.6 20.4 0 5.3-0.8 14.5-1.6 20.4-0.9 5.9-2.7 14.6-4 19.3-1.3 4.7-4.7 13.6-7.6 19.8-3 6.3-8.1 15.4-11.4 20.4-3.4 4.9-10.4 13.3-15.6 18.5-5.3 5.3-12.8 11.7-16.8 14.4-4 2.7-11.3 7-16.2 9.5-4.9 2.5-13.2 5.8-18.4 7.4-5.3 1.5-13.8 3.4-19 4.2-5.8 0.8-14.3 1.1-21.8 0.7-7.6-0.4-16.6-1.7-23.5-3.5-6.1-1.6-15.9-5.3-21.8-8.1-5.8-2.9-13.9-7.4-17.8-10.1-4-2.7-11.6-9.2-16.8-14.5-5.2-5.2-12.3-13.6-15.6-18.5-3.4-5-8.5-14.1-11.4-20.4-2.9-6.2-6.3-15.1-7.6-19.8-1.3-4.7-3.1-13.4-4-19.3-0.9-5.9-1.6-15.1-1.6-20.4 0-5.3 0.8-15 1.8-21.6 0.9-6.5 3.1-16.2 4.8-21.5 1.7-5.3 5.3-14 7.9-19.3 2.6-5.3 7.3-13.4 10.4-18.1 3.2-4.6 10.1-12.7 15.3-18 5.2-5.2 12.8-11.7 16.8-14.3 3.9-2.7 10-6.4 13.4-8.2 3.3-1.8 8.9-4.5 12.3-5.8 3.3-1.4 10.4-3.5 15.6-4.7 5.2-1.2 11-2.5 12.8-2.8 1.9-0.3 10.2-0.3 18.5-0.1zm619 0c10.4 0.3 18.1 1.1 24.6 2.7 5.2 1.3 12.3 3.5 15.7 4.9 3.3 1.3 8.9 4 12.2 5.8 3.4 1.8 9.5 5.5 13.5 8.2 3.9 2.6 11.5 9.1 16.7 14.3 5.2 5.3 12.1 13.4 15.3 18 3.1 4.7 7.8 12.8 10.4 18.1 2.6 5.3 6.2 14 7.9 19.3 1.7 5.3 3.9 15 4.8 21.5 1 6.6 1.8 16.3 1.8 21.6 0 5.3-0.7 14.5-1.6 20.4-0.9 5.9-2.7 14.6-4 19.3-1.3 4.7-4.7 13.6-7.6 19.8-2.9 6.3-8 15.4-11.4 20.4-3.3 4.9-10.4 13.3-15.6 18.5-5.2 5.3-12.8 11.8-16.7 14.5-4 2.7-12.1 7.2-17.9 10.1-5.9 2.8-15.7 6.5-21.8 8.1-6.9 1.8-15.9 3.1-23.5 3.5-7.5 0.4-16 0.1-21.8-0.7-5.2-0.8-13.7-2.7-19-4.2-5.2-1.6-13.5-4.9-18.4-7.4-4.9-2.5-12.2-6.8-16.2-9.5-4-2.7-11.5-9.1-16.8-14.4-5.2-5.2-12.2-13.6-15.6-18.5-3.3-5-8.4-14.1-11.3-20.4-3-6.2-6.4-15.1-7.7-19.8-1.3-4.7-3.1-13.4-4-19.3-0.8-5.9-1.6-15.1-1.6-20.4 0-5.3 0.8-14.5 1.6-20.4 0.9-6 2.7-14.6 4-19.3 1.3-4.7 4.7-13.6 7.7-19.9 2.9-6.2 8-15.4 11.3-20.3 3.4-4.9 9.9-12.8 14.5-17.5 4.6-4.7 10.9-10.4 14-12.7 3.1-2.3 9.6-6.5 14.5-9.2 4.9-2.8 11.7-6.1 15.1-7.5 3.4-1.4 10.4-3.5 15.6-4.7 5.3-1.2 11-2.5 12.9-2.8 1.8-0.3 10.1-0.3 18.4-0.1zm202.6 603c1-0.1 2.4 1 3 2.4 0.6 1.4 8.1 23.2 16.7 48.5 8.6 25.3 15.7 46.5 15.7 47.1 0 0.6-16.9 7.2-37.7 14.6-20.7 7.4-56.8 20.1-80.2 28.2-23.3 8-55.2 18.6-70.9 23.5-15.7 5-39.3 12.1-52.5 15.9-13.2 3.8-31.8 8.9-41.4 11.4-9.5 2.4-27.3 6.7-39.6 9.5-12.3 2.8-34 7.4-48.1 10.2-14.1 2.8-33.2 6.4-42.4 8-9.3 1.5-26.1 4.1-37.5 5.6-11.4 1.6-29 3.6-39.1 4.6-10.1 0.9-29.5 2.2-43 2.9-17.3 0.9-34.9 0.9-59.2 0-19.1-0.6-42.5-1.9-52-2.8-9.5-1-24.9-2.8-34.1-4.1-9.2-1.3-24.5-3.6-34.1-5.1-9.5-1.6-26.6-4.8-37.9-7.3-11.4-2.4-31.3-6.9-44.2-10-12.9-3.1-36.8-9.3-53.1-13.8-16.2-4.5-40.1-11.4-53-15.4-12.9-3.9-35.3-11-49.8-15.7-14.4-4.7-50.9-17.1-81-27.5-30.1-10.4-55.1-19.2-55.6-19.6-0.4-0.3 1.2-6.8 3.7-14.3 2.5-7.4 5.5-17.7 6.8-22.6 1.3-5 3-13.5 3.8-18.8 1-6.3 3.1-13.1 6.1-19.8 2.6-5.6 5.9-13.5 7.5-17.6 1.6-4 2.9-7.5 3-7.6 0.1-0.2 25 8.4 55.5 19 30.4 10.6 69.3 23.8 86.6 29.4 17.2 5.6 39.5 12.7 49.7 15.8 10.1 3.1 26.5 8 36.3 10.8 9.8 2.8 25.9 7.1 35.8 9.6 9.8 2.5 26.9 6.6 37.9 9.1 11.1 2.5 29.2 6.3 40.3 8.5 11 2.2 26.6 5.1 34.6 6.4 8 1.3 23.3 3.3 34.1 4.5 10.7 1.2 28.8 2.7 40.2 3.5 12.9 0.8 33.4 1.1 54.2 0.7 22.4-0.4 40.2-1.4 53.6-2.9 11.1-1.3 28.7-3.6 39.2-5.2 10.4-1.6 29-4.8 41.3-7 12.3-2.2 33.2-6.3 46.4-9.1 13.2-2.8 35.3-7.9 49.1-11.3 13.9-3.4 35-9 47-12.5 12-3.4 32.3-9.5 45.2-13.5 12.9-4 47.4-15.4 76.6-25.4 29.2-10.1 66.9-23.3 83.8-29.5 16.9-6.1 31.6-11.2 32.7-11.3z"/>
</svg>