<svg version="1.2" xmlns="http://www.w3.org/2000/svg" viewBox="0 0 1444 2038" width="1444" height="2038">
	<title>Screenshot 2025-04-14 132710</title>
	<style>
		.s0 { opacity: .61;fill: #102e4d } 
		.s1 { fill: #102e4d } 
	</style>
	<path id="Layer 3" fill-rule="evenodd" class="s0" d="m891.4 201.1c0.9 0.3 11.3 2.3 23.1 4.6 11.8 2.2 22.5 4.3 23.8 4.5 1.7 0.4 2.2 1.2 2 3.3-0.1 1.5 0.3 3.6 0.9 4.7 0.6 1.1 1.7 2.6 2.4 3.3 0.8 0.6 13.8 3.6 56.3 11.9l-0.2 4.2c-0.2 3.4 0.2 4.7 2.5 6.9 2.6 2.6 7.9 3.8 104.1 23.7 55.8 11.5 101.7 21.1 102.1 21.5 0.4 0.3-2.5 16.2-6.5 35.3-3.9 19.1-7.4 35-7.7 35.3-0.2 0.3-72.9-14.5-161.4-32.7-88.6-18.3-161.3-33.5-161.6-33.8-0.4-0.3-0.2-2.7 0.4-5.5 0.6-2.7 4.2-20.3 8-39 3.9-18.7 7.5-37 8.2-40.5 0.7-3.5 1.4-6.8 1.6-7.3 0.2-0.5 1.1-0.6 2-0.4zm-679.3 89.7c0.4 0 4.3 4.1 8.7 9.2 4.3 5.1 8.4 9.7 8.9 10.3 0.6 0.6 8 9.2 16.5 19.1 8.5 9.9 15.7 18.2 16 18.5 0.3 0.3 3.2 3.6 6.5 7.3 3.6 4.1 5.6 7.1 5 7.6-0.6 0.4-8 6.8-16.5 14.2-8.5 7.4-16.8 14.6-18.5 16.1-1.6 1.4-9.9 8.6-18.4 16-8.6 7.3-16.9 14.6-18.5 16-1.7 1.5-13.4 11.6-26 22.5-12.6 11-24.3 21.1-26 22.5-1.6 1.5-10.2 8.9-19 16.5-8.7 7.5-16.2 14-16.4 14.3-0.3 0.4-3.5 3.1-7 6.1-3.6 3-7 5.9-7.6 6.5-0.5 0.6-2.2 2.1-6.4 5.6l-2.4-2.8c-1.3-1.5-14.6-16.9-29.6-34.3-15-17.3-28-32.2-28.7-33-1.3-1.3-1-2 2.4-5 2.1-1.9 7-6.2 10.8-9.5 3.9-3.3 7.3-6.2 7.5-6.5 0.3-0.3 3.7-3.2 7.5-6.5 3.9-3.3 7.2-6.2 7.5-6.5 0.3-0.3 3.7-3.2 7.5-6.5 3.8-3.3 7.2-6.3 7.5-6.5 0.3-0.3 3.6-3.3 7.5-6.6 3.8-3.2 7.2-6.2 7.5-6.5 0.3-0.2 3.6-3.2 7.5-6.5 3.8-3.3 7.2-6.2 7.5-6.5 0.2-0.3 3.6-3.2 7.5-6.5 3.8-3.3 7.2-6.2 7.4-6.5 0.3-0.3 3.7-3.2 7.5-6.5 3.9-3.3 7.3-6.2 7.5-6.5 0.3-0.3 3.7-3.2 7.5-6.5 3.9-3.3 8.4-7.2 10-8.7 1.7-1.4 13.7-11.9 26.8-23.2 13.1-11.4 24.1-20.7 24.5-20.7zm1101.4 32.1c0.6 0 12.8 2 27.1 4.4 14.3 2.5 26 4.6 26.1 4.8 0.1 0.1-1.7 11.2-4 24.6-2.3 13.3-4.6 24.2-5.1 24.2-0.6 0-12.7-2-27-4.5-14.3-2.4-26-4.6-26.1-4.7-0.1-0.2 1.7-11.2 3.9-24.6 2.4-14.7 4.4-24.2 5.1-24.2zm-277.5 123.1c49.3 9.8 63.8 13 63.6 14.1-0.1 0.8-5.2 26.9-11.3 58-6.1 31.1-11.3 57.4-11.6 58.5-0.4 2-3 1.5-64.1-10.6-49.4-9.7-63.6-12.9-63.4-14 0.1-0.8 5.2-26.8 11.3-58 6.1-31.1 11.2-57.4 11.4-58.6 0.3-2 2.5-1.6 64.1 10.6zm-800 13.1c0.1-0.1 6 6.6 13 14.7 7 8.2 14.7 17.3 17.2 20.3 2.5 2.9 13 15.3 23.5 27.5 10.4 12.2 20.8 24.3 23 27 2.2 2.6 12.1 14.3 40.4 47.1l-5.3 4.6c-2.8 2.6-10.3 9.1-16.7 14.5-6.3 5.4-12.4 10.6-13.4 11.5-1.1 0.9-7.2 6.1-13.5 11.5-6.4 5.4-12.6 10.9-14 12.1-1.4 1.3-3.2 2.3-4 2.3-0.8 0-2-0.8-2.6-1.7-0.6-1-9.6-11.7-20-23.8-10.3-12.1-19.3-22.5-19.8-23.2-0.6-0.6-2.9-3.2-5.1-5.9-2.2-2.6-10.9-12.9-19.4-22.9-8.5-9.9-15.9-18.6-16.5-19.2-0.6-0.6-2.8-3.3-5-6-2.2-2.6-9.5-11.2-28.5-33.4l6.2-5.3c3.5-2.9 7.4-6.2 8.8-7.4 1.4-1.2 6.3-5.4 11-9.4 4.6-4 10.9-9.3 13.9-11.9 3-2.5 10.2-8.7 16-13.8 5.8-5 10.6-9.2 10.8-9.2zm337.7 97c0.4 0 1.6 1 2.8 2.3 1.2 1.2 3.3 3.1 4.8 4.2 1.4 1.1 3.6 2.9 5 4 1.3 1.1 3.5 2.9 5 4 1.4 1.1 3.6 2.9 5 4 1.3 1.1 3.5 2.9 4.9 4 1.5 1.1 3.9 3.1 5.4 4.3 1.5 1.3 3.3 2.7 4 3.3 0.7 0.5 0.9 1.6 0.5 2.3-0.4 0.8-9.1 11.8-19.2 24.5-10.2 12.7-18.9 23.1-19.3 23.2-0.4 0-1.7-0.8-2.8-1.8-1.1-0.9-2.9-2.4-3.9-3.2-0.9-0.8-3.2-2.6-5-4-1.8-1.4-4-3.2-5-4-1-0.8-3.2-2.6-5-4-1.8-1.4-4-3.2-5-4-0.9-0.8-3.2-2.7-5-4-1.8-1.4-4.1-3.3-5.1-4.3-1.8-1.7-1.8-1.8-0.1-3.6 0.9-1.1 2.6-3.1 3.7-4.5 1.1-1.4 2.9-3.7 4-5 1.1-1.4 2.9-3.6 4-5 1.1-1.5 2.9-3.7 4-5 1.1-1.3 2.9-3.6 4-5.2 1.1-1.5 2.7-3.5 3.5-4.5 0.8-0.9 2.6-3.2 4-5 1.4-1.8 3.2-4 4-5 0.8-0.9 2.6-3.1 3.9-4.9 1.3-1.7 2.6-3.1 2.9-3.1zm-131.4 9.2l3.1 2.4c1.7 1.4 4.1 3.3 5.4 4.2 1.2 1 3.2 2.6 4.5 3.7 1.2 1.1 4 3.4 6.2 5 2.2 1.7 4.7 3.7 5.6 4.5 1 0.9 2.6 2.2 3.5 3 1 0.9 4.8 3.9 8.4 6.8 3.5 2.9 7.1 5.8 8 6.6 0.8 0.8 2.5 1.9 3.7 2.5 1.3 0.7 3.1 1.2 4 1.2 1 0 3-0.9 4.5-2 1.5-1.1 3-2 3.3-2 0.2 0 3.5 2.4 7.2 5.5 3.7 3 7.7 6.3 9 7.2 1.2 1 4.4 3.7 7 6 2.6 2.3 5.5 4.5 6.5 4.8 0.9 0.3 1.9 1.2 2.2 2 0.3 0.8-0.5 2.5-1.7 3.8-1.3 1.3-3.4 3.8-4.8 5.7-1.3 1.8-3.3 4.2-4.2 5.4-1 1.2-3.3 3.7-5 5.6-1.8 2-4.4 5.1-5.8 6.9-1.3 1.9-3.1 4.2-3.9 5.1-0.9 1-2.9 3.5-4.5 5.5-1.7 2-3.7 4.5-4.5 5.5-0.9 1-2.5 3.1-3.7 4.7-1.2 1.5-3.6 4.3-5.3 6.1-2.6 2.8-3.3 3.1-5.3 2.2-1.2-0.7-3.3-0.9-4.7-0.5-1.4 0.4-3.4 1.7-4.5 3-1.1 1.3-3 3.7-4.3 5.4-1.8 2.6-2.5 2.9-3.5 1.9-0.8-0.7-3.1-2.6-5.1-4.2-2.1-1.7-4.6-3.7-5.6-4.5-0.9-0.9-3.2-2.7-5-4.1-1.8-1.3-4.2-3.4-5.4-4.5-1.2-1.1-3.7-3.1-5.5-4.5-1.9-1.3-4.1-3.1-5.1-4-1-0.8-3.3-2.8-8.8-7.5l2.2-3c1.2-1.6 2.5-3.1 2.9-3.2 0.4-0.2 1.4-1.7 2.3-3.5 1.4-2.8 1.4-3.7 0.3-6.1-0.8-1.5-1.6-2.8-1.9-2.8-0.2 0.1-1.9-1.2-3.6-2.7-1.7-1.5-4.6-3.8-6.4-5.2-1.8-1.4-4-3.2-5-4-0.9-0.8-3.4-2.9-5.4-4.5-2-1.7-4.9-4-6.4-5.3-1.4-1.2-3-2.2-3.4-2.2-0.4 0-0.8-0.8-0.8-1.8 0-0.9 1.1-3.1 2.6-4.7 1.4-1.7 3.1-3.7 3.7-4.5 0.7-0.8 3.6-4.4 6.5-8 2.9-3.6 6.1-7.6 7-8.8 1-1.2 3.6-4.4 6-7 2.3-2.6 4.2-5 4.2-5.3 0-0.2 1-1.6 2.2-3.1 1.3-1.4 3.4-4 4.7-5.7zm169.4 60c1.5 1.1 3.8 2.8 5.2 3.7 1.3 1 3.2 2.4 4.1 3.3 0.9 0.8 2.8 2.4 4.2 3.5 1.5 1.1 3.7 2.9 5.1 4 1.3 1.1 3.5 2.9 4.9 4 1.5 1.1 3.7 2.9 5 4 1.4 1.1 3.6 2.9 5 4 1.5 1.1 3.7 3 5.1 4.2 1.4 1.3 3 2.3 3.5 2.3 0.6 0 1 0.7 1 1.5 0 0.8-3.2 5.5-7.2 10.4-4 4.8-8.4 10.3-9.7 12.1-1.4 1.8-3.2 4.1-4 5-0.9 1-2.7 3.2-4 5-1.4 1.8-3.2 4.1-4 5-0.9 1-2.7 3.3-4 5.1-1.4 1.8-3.5 4.6-4.8 6.1-1.8 2.3-2.5 2.6-3.6 1.6-0.7-0.7-2.8-2.4-4.6-3.8-1.8-1.3-4.1-3.1-5-4-1-0.8-3.2-2.6-5-4-1.8-1.3-4.1-3.2-5-4-1-0.8-3.2-2.6-5-4-1.8-1.4-4-3.2-5-4-0.9-0.8-3.2-2.6-5-4-1.8-1.4-4.2-3.3-5.4-4.3-1.1-1-2.8-2.2-3.6-2.7-1.3-0.7-1.3-1.1 0.3-3.4 0.9-1.4 2.5-3.5 3.5-4.7 0.9-1.1 2.4-2.9 3.2-3.9 0.8-0.9 2.6-3.2 4-5 1.4-1.8 3.2-4.1 4-5 0.8-1 2.6-3.2 4-5.1 1.4-1.8 3-3.7 3.5-4.3 0.6-0.6 3.2-3.8 5.8-7.1 2.6-3.3 5.5-7.1 6.5-8.3 0.9-1.3 2.3-3 3-3.8 1.2-1.3 1.7-1.2 4 0.6zm-219.8 0.8c1 0.9 3.3 2.8 5.1 4.2 1.9 1.3 4.4 3.4 5.6 4.5 1.2 1.1 3.6 3.1 5.4 4.5 1.7 1.3 3.9 3.1 4.8 4 0.9 0.8 2.6 2.1 6.1 4.5l-4.4 5.7c-2.4 3.2-4.4 6.7-4.4 7.8 0 1.1 2 4 4.5 6.5 2.5 2.5 4.9 4.5 5.5 4.5 0.5 0 1.2 0.7 1.5 1.5 0.3 0.8-1.5 4.1-3.9 7.3-2.4 3.1-5 6.4-5.7 7.2-0.8 0.8-4.2 4.9-7.4 8.9-3.3 4.1-8 10-10.4 13.1-2.5 3-4.7 5.8-5.1 6-0.3 0.3-3.2 3.9-6.5 8.1-3.2 4.1-6.1 7.7-6.5 8-0.3 0.2-2.3 2.7-4.5 5.5-2.2 2.7-4.5 5.5-5.2 6.2-1 1-1.7 0.9-3.5-0.5-1.2-0.9-2.7-2.2-3.3-2.7-0.7-0.6-2.7-2.2-4.6-3.7-1.8-1.5-4.3-3.5-5.5-4.5-1.2-1-3.9-3.3-6-5-2.1-1.8-5-4.3-6.5-5.5-1.4-1.3-4.3-3.7-6.4-5.4-2.1-1.6-5.2-4.1-6.8-5.5-2.8-2.4-2.8-2.5-1-4.4 1-1.1 3-3.3 4.4-5.1 1.3-1.7 3.6-4.7 5-6.5 1.3-1.8 3.1-4 4-4.8 0.8-0.9 2.6-3 4-4.7 1.3-1.8 3.6-4.7 5-6.5 1.3-1.8 3.1-4 4-4.8 0.8-0.9 2.6-3 3.9-4.7 1.4-1.8 3.7-4.7 5-6.5 1.4-1.8 3.4-4.2 4.5-5.4 1.1-1.2 3.4-3.9 5-6.1 1.7-2.2 3.9-4.9 4.9-6 1-1.1 3-3.6 4.5-5.5 1.4-2 3.1-4.1 3.6-4.7 0.6-0.6 2.9-3.4 5.3-6.2 4-4.8 4.3-4.9 6-3.3zm574.6 17.2h145.9l-0.2 19.2c-0.1 12.7 0.3 20.1 1 21.6 0.6 1.2 2.3 2.7 3.6 3.2 1.6 0.6 26.2 1 130.9 1l11.5-11.3c6.3-6.1 14.1-13.7 23.1-22.2l74.7 76.1-9.5 9.5c-5.6 5.7-9.4 10.3-9.4 11.5 0.1 1.1 2 4.1 4.3 6.6 2.3 2.6 10.1 10.9 17.2 18.5 7.1 7.6 16.2 17.3 20.1 21.4 3.9 4.2 8.9 9.6 15.3 16.6v14c0 7.7-0.2 15-0.5 16.2-0.4 2.2-0.8 2.3-12 2.3-11.5 0-11.6 0-17.4 6v96.1h-49v-111.1l-5.3-5.8c-2.9-3.1-23-24.7-44.5-47.8-21.6-23.1-40.6-43.3-45.1-47.5l-61.1-0.1c-59.2 0-61.3 0-63.7 1.9-2.3 1.8-2.6 2.8-3.5 22.7l-111.4 0.5v-10c0-9.4-0.2-10.2-5-15h-62.9c-59.9 0-63.1 0.1-64.7 1.8-1 1-5.4 5.7-9.8 10.3-4.4 4.7-11.5 12.3-15.9 17-4.3 4.6-11.3 12-15.5 16.5-4.1 4.4-11.1 11.8-15.4 16.5-4.4 4.6-11.4 12.1-15.5 16.5-4.2 4.4-10.6 11.3-21.1 22.5v111.1h-48.9v-132.1l22.2-23.9c12.2-13 23.3-24.9 24.5-26.2 1.4-1.5 2.4-3.8 2.4-5.5 0-2.5-1.3-4.2-15.7-17.3l8.7-9.4c5-5.4 8.9-10.6 9.4-12.3 0.6-2.9 0-3.7-27-29.4l7.6-8.3c4.3-4.6 12.6-13.6 29.5-31.4l18.9 18c10.4 9.9 20.8 19.7 23.1 21.8 2.4 2 4.9 3.7 5.8 3.7 0.8 0 3.9-2 12.5-9l65.6 0.1c61.7 0 65.9-0.1 68-1.8 1.3-1 2.7-3.6 3.2-5.8 0.5-2.2 1-11.5 1-20.8zm-436.4 26.1c1 0.5 2.7 1.8 3.7 2.7 1.1 1 3.1 2.7 4.5 3.8 1.4 1.1 3.7 2.9 5 4 1.4 1.1 3.5 2.9 4.8 4 1.4 1.1 19.8 15.9 41.1 33 21.3 17.1 38.7 31.3 38.7 31.6 0 0.2-10.9 14-24 30.5-15.5 19.3-24 30.8-24 32.3 0 1.2 1 3.2 2.3 4.5 1.2 1.2 3.7 3.4 5.6 4.7 1.8 1.4 3.8 2.8 4.4 3.2 0.8 0.5 0.6 1.5-0.8 3.5-1 1.6-2.4 3.3-3 3.9-0.5 0.6-2.1 2.6-3.5 4.4-1.4 1.8-3.2 4.1-4 5.1-0.8 0.9-2.6 3.2-4 5-1.4 1.8-3.2 4-4 5-0.8 0.9-2.6 3.2-4 5-1.4 1.8-3.2 4-4 5-0.8 0.9-2.6 3.2-4 5-1.4 1.8-3.2 4-4 5-0.8 0.9-2.6 3.2-4 5-1.4 1.8-3.2 4-4 5-0.8 1-2.6 3.2-4 5-1.3 1.8-2.9 3.8-3.5 4.4-0.6 0.6-5 6.1-9.9 12.1-4.8 6.1-8.9 11-9 11-0.2 0-1.8-1.1-3.6-2.5-1.7-1.3-4-3.1-4.9-4-1-0.8-3.2-2.6-5-4-1.8-1.4-4.1-3.2-5-4-1-0.8-3.2-2.6-5-4-1.8-1.4-4.1-3.2-5-4-1-0.8-3.2-2.6-5-4-1.8-1.4-4.1-3.2-5-4-1-0.8-3.2-2.6-5-4-1.8-1.4-4-3.2-5-4-1-0.8-3.2-2.6-5-4-1.8-1.4-4.9-4.1-6.9-6-2.1-1.9-5.2-4.7-7.1-6-1.8-1.4-11.7-9.2-21.9-17.4-10.2-8.2-20.2-16.1-22.3-17.8-3-2.3-3.5-3.1-2.5-4.2 0.7-0.8 2.4-2.8 3.8-4.7 1.3-1.8 3.1-4 4-5 0.8-0.9 2.6-3.2 4-5 1.3-1.8 3.1-4.1 4-5 0.8-1 2.1-2.7 3-3.7 0.8-1 4.5-5.6 8.2-10.3 3.8-4.7 7.6-9.5 8.5-10.8 1-1.2 2.6-3.3 3.7-4.6 1.1-1.3 2.9-3.6 4-5 1.1-1.4 2.9-3.7 4-5 1.1-1.4 2.9-3.6 4-5 1.1-1.5 2.9-3.7 4-5 1.1-1.4 2.9-3.6 4-5 1.1-1.5 2.9-3.7 4-5.1 1.1-1.3 2.9-3.5 4-5 1.1-1.4 2.9-3.6 4-5 1.1-1.3 2.9-3.5 4-4.9 1.1-1.4 2.9-3.7 4-5.1 1.1-1.4 2.9-3.6 4-5 1.1-1.3 2.9-3.6 4-5 1.1-1.4 2.9-3.7 4-5 1.1-1.3 2.9-3.6 4-5 1.1-1.4 2.9-3.7 4-5 1.1-1.3 2.9-3.6 4-5 1.1-1.4 2.6-3.4 3.5-4.5 0.8-1 2.6-3.3 4-5.1 1.3-1.8 3.1-4.1 3.9-5 0.9-1 2.4-2.9 3.4-4.3 1.5-2.1 2.3-2.4 3.8-1.7zm-203.6 63.2c1.7 1.3 4 3.1 5.1 4.2 1.1 1 3.6 3 5.5 4.5 2 1.5 4 3.1 4.6 3.6 0.6 0.6 2.5 2.3 7.4 6.6l-3.2 4.4c-2.5 3.4-3.6 4.3-4.8 3.6-0.8-0.5-3.8-2.8-6.6-5.2-2.8-2.4-7.8-6.6-11.2-9.4-3.4-2.7-6.1-5.3-6.1-5.7 0-0.4 1.3-2.2 3-4 1.6-1.8 3-3.6 3.1-4.1 0-0.4 1.5 0.2 3.2 1.5zm63.6 11.9c0.3-0.1 1.6 0.9 3 2.2 1.4 1.2 4.3 3.6 6.5 5.3 2.1 1.6 4.6 3.6 5.5 4.5 0.9 0.8 3.1 2.6 4.9 4 1.8 1.3 4.4 3.5 5.9 4.7 1.5 1.3 3 2.3 3.4 2.3 0.4 0 0.8 0.3 0.8 0.7 0 0.4-1.1 1.9-2.3 3.3-1.3 1.4-5 5.9-8.2 10-3.3 4.1-6.2 7.7-6.5 8-0.4 0.3-3.5 4.1-7 8.5-3.4 4.4-6.7 8.1-7.1 8.3-0.5 0.1-1.5-0.3-2.3-1-0.7-0.7-2.9-2.5-4.7-4-1.9-1.4-4.4-3.4-5.6-4.5-1.2-1-3-2.5-4-3.3-1-0.8-4.1-3.3-6.8-5.5-2.7-2.2-5.3-4.4-5.6-5-0.4-0.5-0.2-1.5 0.5-2.2 0.6-0.6 2-2.2 3.1-3.4 1.1-1.3 3.1-3.8 4.5-5.5 1.4-1.7 3.5-4.4 4.7-6 1.2-1.6 3.8-4.7 5.8-6.9 1.9-2.2 5.2-6.4 7.3-9.2 2-2.9 3.9-5.3 4.2-5.3zm926 227.2h63v180.2h-63v-10c0-9.4-0.1-10.2-2.5-12.5-1.9-2-3.5-2.5-11.5-2.5v-135.2h4.6c3.5 0 5.1-0.5 7-2.5 2.1-2.2 2.4-3.4 2.4-10zm-478.5 152.2h40v205.2h-249.8v-157.2h204.9l2.5-2.5c2.4-2.5 2.4-2.5 2.4-24zm-258.7 57.1h33v57h-33zm-65.5 57c0.6 0.5 3.8 2.3 7 4.1 3.3 1.8 7.8 4.3 10 5.5 2.2 1.2 6.5 3.5 9.5 5.2 3.1 1.6 6.5 3.6 10 5.8v84.6l-24.6 44.3c-13.5 24.4-25.7 46.3-27 48.8-1.4 2.5-3.5 6.3-4.8 8.5-1.2 2.2-3.7 6.7-5.5 10-1.8 3.3-9.1 16.6-16.3 29.6-7.1 12.9-13 23.6-13.1 23.7 0 0.1-3-1.2-6.6-2.9-3.6-1.7-11.1-5.3-16.7-8-5.6-2.6-14-6.9-18.5-9.5-4.5-2.5-10.3-5.7-12.7-7.1-2.5-1.5-10-5.4-28.7-14.8l2.9-5.5c1.6-3 4.2-7.7 5.7-10.5 1.5-2.7 4.4-8 6.4-11.7 2-3.8 5.3-9.8 7.3-13.6 2.1-3.7 4.8-8.7 6.2-11.2 1.3-2.5 4.1-7.7 6.2-11.5 2-3.9 4.8-9.1 6.2-11.5 1.3-2.5 4.1-7.6 6.1-11.3 2-3.7 5.3-9.8 7.3-13.5 2-3.7 4.6-8.6 5.8-10.8 1.2-2.2 3.8-6.9 5.7-10.5 2-3.6 5-9.2 10-18.5l3.6 1.7c3.2 1.4 4.1 1.5 6.2 0.4 1.4-0.7 3.5-3.1 4.6-5.2 1.2-2.2 3.5-6.4 5.1-9.4 1.7-3.1 4-7.3 5.3-9.5 1.2-2.2 3.8-7 5.8-10.6 1.9-3.5 4.4-8 5.5-10 1.1-1.9 3.5-6.4 5.5-10 1.9-3.6 4.5-8.4 5.8-10.7 1.3-2.4 3.5-6.4 5-9 1.4-2.7 4-7.4 5.6-10.6 2.1-3.8 3.5-5.4 4.2-4.8zm58.5 15.1h40v75.1h-40zm-240.2 209.2c0.2 0 3.5 1.7 7.2 3.7 3.7 2 9 4.9 11.7 6.4 2.8 1.5 8.2 4.4 12 6.5 3.9 2 9.9 5.3 13.5 7.2 3.6 2 9 4.9 12 6.5 3 1.6 5.9 3.3 6.5 3.8 0.6 0.6 0.3 1.8-1 3.7-1 1.5-3.1 5-4.6 7.8-1.4 2.7-4.3 8.1-6.4 12-2.1 3.8-5 9.2-6.5 12-1.5 2.7-4.4 8.1-6.5 12-2.1 3.9-4.9 9.2-6.1 11.8-1.3 2.6-3.1 4.9-3.9 5.2-0.8 0.3-2.7-0.2-4.2-1.1-1.5-1-6.1-3.5-10.3-5.7-4.1-2.2-9.9-5.3-13-6.9-3-1.7-7.7-4.3-10.4-5.8-2.8-1.4-8.4-4.5-12.5-6.7-4.2-2.2-8.6-4.6-10-5.4-1.4-0.8-2.6-1.5-2.8-1.7-0.1-0.1 1.7-3.7 4-8 2.3-4.2 5.4-10 6.8-12.7 1.5-2.8 4.3-8 6.2-11.5 2-3.6 5.2-9.7 7.3-13.6 2.1-3.8 4.8-8.8 6-11 1.1-2.2 2.6-5 3.3-6.2 0.7-1.3 1.4-2.3 1.7-2.3zm-32.9 87.1c0.2 0 3 1.4 6.1 3.2 3.2 1.7 7.3 4 9.3 5.1 1.9 1.1 3.9 2.3 4.5 2.7 0.5 0.4 4.3 2.5 8.5 4.7 4.1 2.3 9 5 10.9 6 2 1.1 4.4 2.6 5.5 3.3 2 1.3 1.7 2-7.8 18.9-5.4 9.7-11.1 19.9-12.6 22.7-1.5 2.7-13 23.2-25.5 45.5-12.4 22.3-22.9 40.7-23.1 40.8-0.2 0.2-4.6-2-9.6-4.8-5.1-2.8-11.5-6.4-14.3-7.9-2.7-1.5-9.1-5.1-14.2-7.9-6.7-3.7-9-5.5-8.3-6.4 0.4-0.7 2.1-3.5 3.6-6.3 1.5-2.7 3.6-6.4 4.6-8.2 1-1.8 2.7-4.7 3.7-6.5 1-1.8 3.3-6 5.1-9.3 1.9-3.3 4.2-7.5 5.2-9.2 1-1.8 2.7-4.8 3.7-6.6 1-1.7 2.9-5.2 4.3-7.7 1.4-2.5 3.4-6.1 4.5-8 1.1-1.9 3.5-6.2 5.3-9.5 1.8-3.3 4.2-7.6 5.3-9.5 1.1-2 3.1-5.6 4.5-8 1.4-2.5 3.4-6 4.4-7.8 1-1.8 2.6-4.7 3.6-6.5 1-1.8 3.4-6 5.2-9.3 1.8-3.3 4.2-7.7 5.3-9.7 1.1-2.1 2.1-3.8 2.3-3.8zm-78.9 143.2c0.2 0 4.5 2.2 9.6 4.8 5.1 2.7 14.1 7.4 20 10.5 5.9 3.1 15.6 8.2 21.5 11.3 5.9 3.1 14.7 7.8 19.7 10.4 4.9 2.6 13.3 7 18.5 9.7 5.2 2.8 14.4 7.7 20.4 10.9 6.1 3.1 14.6 7.6 19 9.9 4.4 2.3 13.9 7.3 21 11.1 7.1 3.8 15.6 8.1 18.7 9.7 3.2 1.5 5.8 3 5.8 3.3 0 0.2-3 6.2-6.6 13.2-3.7 7.1-10.7 20.7-15.6 30.3-5 9.7-9.4 18-9.8 18.5-0.4 0.6-2.5 4.4-4.5 8.5-2.1 4.2-4.2 8.1-4.9 8.8-0.6 0.8-1.5 0.9-2.1 0.4-0.5-0.5-5.2-3.1-10.5-5.9-5.2-2.7-12.9-6.8-17.2-9.1-4.3-2.3-11.1-6-15.2-8.2-4.1-2.2-10.9-5.8-15-8-4.1-2.2-10.9-5.8-15-8-4.1-2.2-10.9-5.8-15-8-4.1-2.2-11-5.9-15.2-8.2-4.3-2.3-9.1-4.8-10.8-5.6-1.6-0.8-4.4-2.3-9.4-5.2l4.1-7.8c2.3-4.2 5.4-10.2 6.9-13.2 1.5-3.1 2.5-6.2 2.2-7-0.3-0.9-1.3-2.4-2.2-3.4-0.8-1-5.6-4-10.5-6.7-5-2.7-12.9-6.9-17.5-9.5-4.7-2.5-10.2-5.3-12.3-6.3-2.1-0.9-3.8-1.9-3.7-2.2 0-0.3 1.9-4.3 4.3-9 2.4-4.7 7-13.5 10.2-19.5 3.2-6.1 6.9-13.2 8.3-15.8 1.3-2.6 2.5-4.7 2.8-4.7z"/>
	<path id="Layer 5" fill-rule="evenodd" class="s1" d="m884.4 195.2c-0.5 0.7-1.5 4-2.1 7.3-0.7 3.3-4.4 21.8-8.2 41-3.9 19.3-7.8 38.6-8.7 43-0.9 4.4-1.3 9.3-0.9 10.8 0.3 1.5 1.4 3 2.4 3.2 0.9 0.3 75.8 15.8 166.4 34.5 90.5 18.8 165.3 33.9 166.1 33.6 0.8-0.3 1.7-1.5 2-2.8 0.3-1.2 3.9-18.5 8-38.5 4.1-19.9 7.5-37.6 7.5-39.3 0-1.6-0.6-3.3-1.3-3.7-0.6-0.4-47.7-10.4-104.6-22.3l-103.5-21.5c0.6-9.2 0.3-11.3-0.6-12.1-0.8-0.6-13.7-3.5-28.9-6.4-15.1-2.8-28-5.7-28.8-6.4-0.8-0.7-1.1-2.2-0.7-4.1 0.4-1.8 0.1-3.8-0.7-4.8-1-1.5-7.2-3-29.2-7.3-15.4-3-29.2-5.4-30.6-5.4-1.5 0-3.1 0.6-3.6 1.2zm-0.7 22.1c-2 10.6-6.5 32.6-9.9 48.9-3.4 16.4-5.9 29.9-5.7 30.1 0.3 0.2 74.4 15.7 164.6 34.3 90.3 18.7 164.3 33.8 164.5 33.5 0.2-0.3 3.9-17.6 8.1-38.5 4.2-20.9 7.6-38.1 7.4-38.2-0.2-0.1-46.6-9.7-103.2-21.4-69.5-14.3-103.6-21.7-104.8-22.8-1.6-1.4-1.8-2.6-1.3-6.7l0.6-5c-49.3-9.4-56.9-11.3-58.4-12.7-1.4-1.3-2-3.2-2-6.1v-4.1c-41.2-8.2-53.9-10.6-54.7-10.6-1.2 0-2.4 4.3-5.2 19.3zm-673.5 65.9c-1 0.6-42.6 36.4-92.4 79.6-49.8 43.1-91.4 79.4-92.4 80.6-1.2 1.5-1.6 3.1-1.3 4.7 0.4 1.4 14.8 19 32.2 39.1 17.3 20 32.5 37.3 33.7 38.3 1.2 1 3 1.7 4 1.7 0.9 0 43.6-36.3 94.9-80.7 51.2-44.5 93.5-81.3 93.9-81.8 0.4-0.6 0.7-1.7 0.8-2.4 0-0.6-14.7-18.2-32.6-39-17.9-20.8-33.6-38.6-34.7-39.5-1.2-1-2.6-1.8-3.2-1.8-0.5 0.1-1.8 0.6-2.9 1.2zm-76 71.5c-43.4 37.7-83.2 72.2-88.4 76.7-5.2 4.5-11.3 10-13.7 12.2l-4.2 4 65.3 75.4c141.7-122.5 183.6-158.7 184.4-159.5q1.5-1.5 0.4-2.2c-0.6-0.4-7.2-7.9-14.8-16.7-7.6-8.8-14.9-17.4-16.3-19-1.5-1.7-8.5-9.8-15.7-18.1-7.2-8.3-14.2-16.5-15.6-18.2l-2.5-3.2zm1174.3-38.2c-0.9 0.9-1.9 2.8-2.1 4.3-0.3 1.6-2.4 14.1-4.6 27.8-2.3 13.8-3.9 26-3.5 27.3 0.3 1.2 1.3 2.4 2.3 2.7 1 0.3 15.2 2.7 31.7 5.4 16.5 2.7 30.6 4.7 31.3 4.3 0.7-0.4 1.7-2 2.2-3.7 0.5-1.6 2.7-14.5 5-28.5 2.3-14 3.9-26.5 3.6-27.8-0.3-1.2-1.4-2.4-2.4-2.7-0.9-0.2-14.1-2.5-29.2-5-15.1-2.5-28.6-4.8-30.1-5.1-1.6-0.3-3.2 0.1-4.2 1zm-500.8 8.7c-11 2.8-22.2 6.1-25 7.4-2.7 1.3-7.6 4.7-10.8 7.7-3.9 3.4-9.1 10.2-15.1 19.3-5 7.7-10.8 16.7-12.8 20-2.1 3.3-4.6 8.4-5.7 11.3-1.1 2.9-7.9 26.7-15.2 53-7.2 26.3-15 55.4-17.4 64.8-2.4 9.4-8.3 33.7-13 54-4.7 20.4-10.4 43.6-12.6 51.6-2.2 7.9-11.1 44.4-19.8 81-8.9 37.8-21.2 86-28.3 111.6-6.9 24.7-14.5 50.8-17 58-2.4 7.2-6.4 18.4-8.9 25-2.5 6.6-11.1 28.5-19.1 48.5-8.1 20.1-15.9 38.3-17.4 40.4-1.5 2.1-4.3 4.5-6.2 5.3-2.4 1.1-5 1.5-8.5 1.1-3.1-0.4-6.8-1.8-10-3.8-2.7-1.7-28.6-19.6-57.4-39.8-45.3-31.6-53.9-38.1-62.6-46.7-6.4-6.3-15.6-17.4-25-30-8.3-11-27.4-36.7-42.5-57-15-20.4-31.2-42.5-35.9-49.1-4.7-6.6-9-12.6-9.4-13.5-0.5-0.8 2.9 1.7 7.5 5.5 4.7 3.8 10.7 8.8 13.5 11.1 2.7 2.3 6 4.7 7.2 5.3 1.3 0.6 3.2 0.9 4.3 0.6 1.1-0.2 4.7-3.9 8-8.2 4.2-5.3 5.9-8.3 5.5-9.5-0.4-1.4 0.1-1.2 2.5 0.7 1.6 1.4 4 2.5 5.2 2.6 1.2 0 3.4-1.3 4.9-2.8 1.4-1.5 15.7-18.9 31.7-38.5 16-19.7 29.1-36.4 29.1-37.1 0-0.6-0.8-2.3-1.7-3.7-1-1.4 6.2 4 16 12 9.7 8 19.2 15.4 21 16.4 1.9 1.2 4 1.6 5.4 1.2 1.3-0.3 4.1-2.8 6.3-5.6l4-5c5.3 2.7 7 2.9 8.1 2.4 0.9-0.5 8.8-9.6 17.5-20.3 8.7-10.7 20.2-24.7 25.6-31.3 6.5-8 9.7-12.6 9.7-14.3 0-2.1-3.6-5.5-19.7-18.6-11.1-8.9-20.6-16-21.8-15.9-1.1 0-3.2 1.2-4.7 2.7l-2.7 2.7c-7.6-6.2-18.9-15.3-29.9-24.2-11.1-9-20.9-16.3-21.9-16.3-0.9 0.1-2.2 0.4-2.8 0.8-0.6 0.4-11.1 13.1-23.3 28.2-19.8 24.5-22.2 27.9-21.7 30.3 0.6 2.7 0.6 2.7-1.9 1.3-1.3-0.9-3.4-1.3-4.5-1-1.1 0.2-17.3 19.4-36.2 42.7-18.9 23.3-35.3 43.7-36.6 45.3-1.6 2.1-2.1 3.8-1.7 5.5 0.3 1.5 2.9 4.4 6.3 7 4.9 3.9 5.5 4.6 3.5 4.8-1.4 0.1-4.4 2.8-7.8 7-3.1 3.7-6.1 7.7-6.8 8.9-1 2-2.4 0.4-17.3-21-15.2-21.7-19-26.3-60.5-72.7-24.3-27.2-51.9-57.5-61.2-67.4-9.7-10.3-18.6-18.7-20.7-19.8-2.1-1-5.7-2.1-8-2.5-2.4-0.3-6.2-0.1-8.5 0.5-2.4 0.6-6 2.6-8 4.5-2.1 1.8-4.6 5-5.5 7-1.1 2.2-1.8 6-1.8 9.6 0 4.4 0.7 7.4 2.4 10.8 1.4 2.6 8.6 11.7 16.2 20.3 7.6 8.5 27.4 30.5 43.9 49 16.5 18.4 34.2 38 39.5 43.5 5.2 5.5 12.6 13.8 16.5 18.5 4 4.7 13.6 17.8 21.6 29 7.9 11.3 22.7 32.4 32.8 46.9 10.2 14.5 22.1 31 26.5 36.5 4.5 5.6 21.1 27.7 37 49.2 18.2 24.6 31.9 42 36.9 47.1 4.4 4.4 13.2 11.9 19.5 16.6 6.3 4.7 29.5 21 51.5 36.3 22 15.3 44.4 31.1 49.9 35.1 5.5 4.1 11.2 9.1 12.5 11.1 1.4 2.1 3.1 6 3.8 8.6 1 4 1 5.7-0.3 10.5-0.9 3.2-2.6 7.4-3.7 9.3-1.2 1.9-14.1 20.6-28.7 41.5-14.5 20.9-30.5 44.4-35.5 52.1-5 7.7-21.2 32-36 54-14.8 22-31 45.9-36 53-5 7.2-25.7 37.6-45.9 67.6-20.3 29.9-40.4 59.7-44.9 66-4.4 6.3-13.4 19.1-20 28.5-6.7 9.3-27.9 40-47.2 68-30.5 44.3-39.9 58.8-70.2 109.1-19.2 31.9-37.2 62.8-40 68.5-2.8 5.8-5.5 13.3-6.1 16.6-1 4.8-0.9 7.5 0.4 14 0.9 4.4 9.7 35.9 19.6 70 9.9 34.1 26.5 91.5 37 127.6 10.4 36 22.1 75.9 25.8 88.5 3.8 12.7 7.4 24.2 7.9 25.5 0.6 1.4 2.4 4.3 4 6.5 1.5 2.2 4.9 5 7.3 6.3 2.9 1.4 6.3 2.2 9.7 2.2 2.9 0 6.5-0.4 8-1 1.5-0.6 4.3-2.5 6.1-4.3 1.9-1.7 4.2-5 5.2-7.2 1.1-2.3 1.9-6.3 1.9-9.5 0-3-0.8-8.8-1.9-13-1.1-4.1-8.3-29.5-16-56.5-7.8-27-17.5-60.5-21.7-74.5-4.1-14.1-10.6-35.9-14.3-48.6-3.8-12.6-8.2-28.2-9.9-34.5-1.7-6.3-6.2-27.7-10.1-47.5-3.8-19.8-7-38.5-7-41.5 0-4 0.8-7.2 2.8-11.6 1.6-3.3 16.1-27.8 32.2-54.5 16-26.7 34.4-56.2 40.8-65.5 6.3-9.4 13.8-20.2 16.7-24 2.8-3.9 23.3-33.4 45.4-65.6 22.2-32.2 48.9-71.1 59.3-86.5 10.4-15.4 28.2-41.7 39.5-58.3 11.3-16.7 26.9-39.4 34.5-50.5 7.6-11.2 29.7-43.9 49-72.8 19.3-28.9 43.1-64 52.9-78.1 9.8-14 19.3-27 21-28.8 1.7-1.9 4.8-4.2 6.8-5.3 2.1-1 6.8-2.3 10.5-2.7 3.8-0.5 10.4-0.5 14.8-0.1 4.4 0.5 12.5 1.5 18 2.4 6.8 1 17.6 1.5 34.4 1.5 13.5 0 48.4-0.9 77.5-2.1 49.4-1.9 53.4-2 59.4-0.4 3.6 0.9 8.1 2.6 10 3.9 2 1.3 6.3 6.3 9.6 11.2 3.3 4.9 7.8 10.3 10 12 2.4 1.9 6.2 3.6 9.9 4.4 4.9 1.1 18.1 1.1 72.5 0.2 36.5-0.7 121.7-1.2 189.3-1.2 79.3 0 124.9 0.4 128.4 1 3 0.6 6.6 1.9 8 2.8 1.4 1 3.6 4.1 5 6.8l2.4 4.9c1.3 140.8 1.4 145.4 3.2 149 1.1 2.2 2.8 4.5 3.9 5.3 1.1 0.7 3.5 1.3 5.3 1.3 2.3 0 4.2-0.8 6.1-2.7 1.6-1.5 3.2-4.3 3.5-6.3 0.4-1.9 0.3-55.5-0.1-119l-0.8-115.6c-3.4-7-6.1-10.6-8.2-12.4-2.1-1.9-5.8-4.4-8.3-5.5-3.9-1.8-7.3-2.1-27-2.6-19.9-0.5-22.9-0.8-25.9-2.5-1.9-1.1-4.4-3.6-5.5-5.5-2-3.5-2.1-4.9-2.6-86.6-0.4-79.8-0.5-83.2-2.5-88.5-1.1-3.1-3.5-8.2-5.4-11.4-2-3.2-6-8.1-9-10.9-3.1-2.7-8.1-6.3-11.3-7.9-3.1-1.5-8.5-3.5-12-4.3-5.2-1.3-18.8-1.5-85.2-1.5-66.3 0-79.9 0.2-85.1 1.5-3.5 0.8-9.1 2.9-12.5 4.6-3.6 1.8-8.9 5.8-12.4 9.3-3.3 3.3-7.4 8.8-9.1 12.1-1.7 3.3-3.6 7.8-4.4 10-1 3.1-1.4 22.7-1.8 91.5l-0.6 87.6c-4.5 9.5-6.6 12.2-8.7 13.4-1.8 1.1-5.7 2.6-8.8 3.4-4 1.1-14.7 1.7-40.9 2.1-19.5 0.4-74.2 2.1-121.4 3.8-70.7 2.6-87.3 2.9-93.7 2-4.3-0.7-10.3-2.4-13.5-3.9-3.2-1.5-7.5-4.3-9.6-6.3-2.1-1.9-5.1-5.5-6.5-8-2.2-3.7-2.6-5.7-2.6-11 0.1-5.7 1.5-10.2 10.3-34.5 5.7-15.4 14.3-39.1 19.3-52.6 5-13.5 11.7-32.4 14.9-42 3.2-9.6 12.6-42 20.8-72 8.2-30 15.7-58.2 16.6-62.6 1-4.4 5.5-24.2 10.1-44 4.7-19.8 10.7-44.3 13.4-54.5 2.7-10.2 9.9-39.5 16-65.1 6.1-25.5 13-54.4 15.4-64 2.4-9.6 9.4-35.5 15.4-57.5 6.1-22 11.8-42.3 12.7-45.1 0.9-2.7 2.6-6.8 3.7-9 1.1-2.2 4.4-7.6 7.2-12 2.9-4.4 7.1-10.3 9.4-13.2 3-3.9 5.8-6 10.4-8.2 3.4-1.6 10.3-3.8 15.2-5 6.8-1.5 12.3-2.1 22.5-2.1 7.4 0 17.5 0.5 22.5 1.1 4.9 0.5 66.3 12.4 136.4 26.4 70 14 155.9 31.1 190.8 37.9 34.9 6.9 67.8 13.3 73 14.2 5.2 0.8 20.9 3.8 34.9 6.6 16.5 3.3 28.2 5.1 33 5.2 5.3 0 8.5-0.5 11-1.8 1.9-1 4.8-2.9 6.3-4.4 1.6-1.4 3.5-3.8 4.2-5.1 0.7-1.4 1.6-4.3 1.9-6.5 0.4-2.3 0.2-6.2-0.5-9-0.9-3.7-2.5-6.3-5.8-9.6-3-3-6.4-5.2-9.6-6.3-2.7-0.9-30.8-6.8-62.4-13.2-31.6-6.3-65.1-12.9-74.5-14.5-9.3-1.7-30.9-5.8-47.9-9.1-17.1-3.3-87.5-17.3-156.4-31.1-104.6-20.9-127.6-25.2-138.4-25.9-7.2-0.4-18.4-0.8-25-0.8-11.1 0-13.5 0.4-32 5zm502.7-2.4c-0.3 1.6-2.3 13.8-4.6 27.3-2.2 13.5-3.9 24.6-3.7 24.6 0.1 0.1 13.4 2.3 29.4 5 16.1 2.7 29.4 4.7 29.7 4.4 0.3-0.2 2.6-12.6 5.1-27.5 2.5-14.8 4.4-27 4.3-27.1-0.2 0-13.1-2.2-28.8-4.8-15.6-2.5-29-4.6-29.6-4.6-0.7 0-1.5 1.2-1.8 2.7zm-500.7 6.4c-11 2.8-22.2 6.1-25 7.4-2.7 1.3-7.2 4.3-9.9 6.7-2.8 2.5-8.6 10.1-14 18.3-5 7.7-10.8 16.7-12.8 20-2.1 3.3-4.6 8.4-5.7 11.3-1.1 2.9-7.9 26.7-15.2 53-7.2 26.3-15 55.4-17.4 64.8-2.4 9.4-8.3 33.7-13 54-4.8 20.4-10.4 43.6-12.6 51.6-2.2 7.9-11.1 44.4-19.8 81-8.7 36.6-20.3 83-25.9 103.1-5.6 20-11.7 41.9-13.7 48.5-1.9 6.6-5.5 17.8-8 25-2.5 7.2-12.6 33.3-22.4 58-12 30.3-18.9 46.5-21.2 49.6-1.8 2.4-5.1 5.3-7.3 6.3-2.9 1.5-5.5 1.8-10.5 1.5-5.3-0.3-7.6-1-12-3.7-2.9-1.8-29-19.8-57.8-40-47-32.8-53.7-37.8-63.6-47.7-9.2-9.1-17-18.9-45-56.5-18.7-25.1-38.9-52.3-45-60.5-6-8.3-22.1-30.8-35.6-50.1l-24.6-35c-63.8-71.3-90.9-101.2-101.4-112.4-11.8-12.7-20.6-21.2-23.1-22.5-2.2-1.1-5.9-2-8.5-2-2.5 0-5.9 0.7-7.7 1.7-1.8 0.9-4.5 3.3-6 5.3-2 2.6-2.9 5.2-3.1 8.8-0.3 3.9 0.2 6.2 2.1 10 1.4 2.8 8.7 12 16.3 20.6 7.6 8.5 27.4 30.5 43.9 49 16.5 18.4 34.2 38 39.5 43.5 5.2 5.5 12.6 13.8 16.5 18.5 3.9 4.7 13.6 17.8 21.6 29 7.9 11.3 22.7 32.4 32.8 46.9 10.2 14.5 22.1 30.9 26.5 36.5 4.5 5.6 21.1 27.7 37 49.2 15.9 21.5 32.1 42.2 35.9 46.1 3.9 3.9 12.2 10.9 18.5 15.6 6.3 4.7 31.7 22.6 56.5 39.8 24.7 17.3 47.4 33.3 50.4 35.6 3.1 2.3 7 6.4 8.8 9.1 1.8 2.7 3.7 7.1 4.3 9.9 0.8 3.5 0.8 6.6 0 10.5-0.6 3-2.1 7.5-3.4 10-1.3 2.5-14.4 21.8-29.2 43-14.8 21.2-30.9 44.9-35.9 52.6-5 7.7-21.2 32-36 54-14.8 22-31 45.9-36 53-5 7.2-25.7 37.6-45.9 67.6-20.3 29.9-40.4 59.7-44.9 66-4.4 6.3-13.4 19.1-20 28.5-6.7 9.3-27.9 40-47.2 68-30.5 44.3-39.9 58.8-70.2 109.1-19.2 31.9-37.2 62.8-40 68.5-2.7 5.8-5.4 12.8-6 15.6-0.7 3.6-0.6 6.7 0.4 11.5 0.7 3.5 9.5 34.8 19.6 69.5 10 34.7 26.4 91.4 36.4 126.1 10.1 34.6 21.3 73.1 24.9 85.5 3.6 12.4 7.4 24.6 8.3 27 0.9 2.5 2.8 6.3 4.2 8.4 1.4 2.1 4.4 4.6 6.6 5.7 2.2 1.1 5.4 1.9 7.2 1.9 1.8 0 4.5-0.4 6-1 1.5-0.6 3.8-2.1 5.1-3.3 1.3-1.2 3.2-4 4.3-6.2 1-2.2 1.8-5.5 1.8-7.5 0-1.9-0.8-6.8-1.9-11-1.1-4.1-8.3-29.5-16-56.5-7.8-27-17.5-60.5-21.7-74.5-4.1-14.1-10.6-35.9-14.3-48.6-3.8-12.6-8.2-28.2-9.9-34.5-1.7-6.3-6.2-27.7-10.1-47.5-4.9-25.1-7-38.3-7-43.5 0-6.2 0.5-8.6 2.9-13.6 1.5-3.3 16-27.8 32.1-54.5 16-26.7 34.4-56.2 40.8-65.5 6.3-9.4 13.8-20.2 16.7-24 2.8-3.9 23.3-33.4 45.5-65.6 22.1-32.2 48.8-71.1 59.2-86.5 10.4-15.4 28.2-41.7 39.5-58.3 11.3-16.7 26.9-39.4 34.5-50.5 7.6-11.2 29.7-43.9 49-72.8 19.3-28.9 43.1-64 52.9-78.1 9.8-14 19.7-27.4 22-29.8 2.2-2.4 5.8-5.2 7.9-6.3 2-1 7.1-2.3 11.2-2.9 4.9-0.6 10.6-0.7 16.7 0 5.1 0.5 13.8 1.7 19.3 2.5 6.5 1 17.4 1.5 31.4 1.5 11.9 0 46.7-0.9 77.5-2.1 52.3-2 56.4-2 62.4-0.5 3.6 0.9 8.2 2.8 10.3 4.1 2 1.4 5.7 5.3 8.2 8.8 2.4 3.4 5.7 8 7.3 10.2 1.6 2.4 4.9 5.1 7.8 6.5l4.9 2.5c82.1-0.7 169.8-1 247.8-1 78.1 0 143.6 0.4 145.7 0.8 2 0.4 5.4 2.2 7.4 4 2 1.8 4.5 5.3 5.6 7.7 2 4.4 2.1 7.4 2.7 77.1 0.7 68.2 0.8 72.7 2.6 76.3 1 2.1 2.7 4 3.6 4.3 1 0.2 2.7 0 3.8-0.6 1.1-0.5 2.5-2.4 3-4.2 0.7-2.2 0.9-39.4 0.4-114.8-0.3-61.4-1-113.9-1.5-116.6-0.5-2.8-2.2-6.9-3.9-9.3-2.1-2.9-4.8-5.1-8.7-7-5.6-2.6-6.4-2.7-28.3-3.3-17.8-0.4-23.1-0.9-25.5-2.1-1.6-0.9-3.9-2.7-5.1-4-1.1-1.3-2.7-3.4-3.5-4.8-1.1-2.1-1.4-17.7-1.9-85.6-0.5-74.3-0.7-83.5-2.2-88-0.9-2.8-3.3-7.7-5.2-11-2-3.3-5.7-8-8.3-10.4-2.6-2.4-7.3-5.7-10.5-7.3-3.1-1.5-8.5-3.5-12-4.3-5.2-1.3-18.6-1.5-83.2-1.5-64.5 0-77.9 0.2-83.1 1.5-3.5 0.8-9.1 2.9-12.5 4.6-3.5 1.8-8.6 5.5-11.4 8.3-2.8 2.8-6.4 7.8-8.1 11.1-1.7 3.3-3.6 7.8-4.4 10-1 3.1-1.4 22.7-1.8 91.6l-0.6 87.6c-4.9 9.7-7.4 12.8-10 14.6-2.2 1.5-6.4 3.4-9.5 4.2-3.9 1-15.2 1.6-39.9 2-19 0.4-74.3 2.1-122.9 3.8-74.7 2.7-89.7 3.1-96.7 2-4.5-0.7-10.8-2.4-14-3.9-3.2-1.5-7.9-4.7-10.6-7.3-2.7-2.5-6-6.5-7.5-9-2.3-4-2.6-5.6-2.6-13 0.1-8.3 0.4-9.4 10.3-36.5 5.7-15.4 14.3-39.1 19.3-52.6 5-13.5 11.7-32.4 14.9-42 3.2-9.6 12.6-42 20.8-72 8.2-30 15.7-58.2 16.6-62.6 1-4.4 5.5-24.2 10.1-44 4.7-19.8 10.7-44.3 13.4-54.5 2.7-10.2 9.9-39.5 16-65.1 6.1-25.5 13-54.4 15.4-64 2.4-9.6 9.4-35.5 15.4-57.5 6.1-22 11.8-42.3 12.7-45.1 0.9-2.7 2.6-6.8 3.7-9 1.1-2.2 4.8-8.2 8.3-13.5 3.4-5.2 8.2-11.7 10.6-14.3 2.7-3.1 6.5-5.9 10.3-7.7 3.3-1.5 10.1-3.7 15-4.9 7.1-1.6 12.3-2.1 24.5-2.1 8.5 0 19.5 0.5 24.5 1.1 4.9 0.5 66.3 12.4 136.4 26.4 70 14 155.9 31.1 190.8 37.9 34.9 6.9 67.7 13.3 73 14.2 5.2 0.8 20.9 3.8 34.9 6.6 14.1 2.8 28 5.1 31 5.1 4 0 6.7-0.6 9.9-2.3 2.4-1.4 5.3-3.6 6.3-4.9 1-1.4 2.3-4.1 2.7-6 0.6-2.2 0.5-5.2-0.2-8-0.7-2.9-2.4-5.9-4.6-8.1-2-2-5.8-4.3-8.6-5.3-2.7-0.9-30.8-6.8-62.4-13.2-31.6-6.3-65.1-12.9-74.5-14.5-9.3-1.7-30.9-5.8-47.9-9.1-17.1-3.3-87.5-17.3-156.4-31.1-104.6-20.9-127.6-25.2-138.4-25.9-7.2-0.4-17.5-0.8-23-0.8-8.7 0-12.7 0.7-30 5zm158 99.2c-0.7 1.2-6.8 29.9-13.5 63.8-6.6 33.8-12.1 62.4-12.1 63.5-0.1 1.1 0.5 2.5 1.2 3.1 0.7 0.6 31.8 7.2 69 14.5 65.2 13 67.7 13.4 69.4 11.6 1.4-1.3 5-17.8 14-64 6.8-34.2 12.3-63.1 12.3-64.2 0.1-1.1-0.5-2.5-1.2-3.1-0.7-0.6-31.2-7.1-67.8-14.3-36.5-7.2-67.2-13.1-68.1-13.1-1 0-2.4 1-3.2 2.2zm3 2.9c-0.2 0.8-5.9 29-12.5 62.9-6.7 33.8-12 61.6-11.8 61.6 0.1 0.1 29.9 6 66.2 13.2 36.2 7.2 66.1 12.8 66.4 12.5 0.3-0.2 6-28.5 12.8-62.7 6.7-34.1 12.1-62.2 11.9-62.2-0.1-0.1-29.2-5.9-64.7-12.9-35.4-6.9-65.2-12.9-66.1-13.2-0.9-0.2-1.9 0.1-2.2 0.8zm-770.7 49.5c-19.1 16.2-35.6 30.5-36.6 31.7-1 1.2-1.8 3-1.7 4 0 0.9 26.8 33.1 59.5 71.5 32.8 38.4 60.5 70.6 61.7 71.6 1.2 1 3 1.8 4 1.7 0.9 0 17.6-13.5 36.9-30.1 19.4-16.5 35.9-31 36.8-32.1 1.1-1.5 1.2-2.6 0.5-4.4-0.6-1.3-26.9-32.6-58.5-69.7-31.6-37-58.9-68.8-60.7-70.6-1.8-1.8-4.1-3.2-5.2-3.2-1 0-17.4 13.2-36.7 29.6zm31.1-20.3c-3.3 2.9-7.3 6.3-8.9 7.6-1.7 1.2-8.4 6.9-15 12.6-6.6 5.7-17.1 14.8-23.4 20.2-6.2 5.4-12.8 10.9-14.6 12.3l-3.3 2.5c16.2 19.4 22 26.1 23.2 27.5 1.2 1.4 10.4 12.2 20.5 24 10 11.9 19.3 22.7 20.5 24 1.1 1.4 11.7 13.8 23.4 27.6 11.8 13.7 22.5 26.3 23.9 28 1.4 1.6 4 4.6 5.8 6.5l3.2 3.5c54.4-46.2 70.2-60 70.2-60.6 0-0.5-4.4-6-9.8-12.1-5.3-6.1-11.1-12.8-12.7-14.9-1.7-2-4.8-5.9-7-8.6-2.1-2.7-4.4-5.3-5-5.9-0.6-0.5-6.7-7.5-13.5-15.4-6.9-7.9-13.6-15.8-15-17.5-1.3-1.7-5.3-6.5-8.8-10.6-3.5-4.1-7.5-8.9-8.9-10.5-1.4-1.7-8-9.3-14.7-16.9-6.6-7.6-13.2-15.3-14.6-17.1-1.3-1.7-4.1-5-6.1-7.3l-3.5-4.2zm339.7 88.5c-0.6 0.4-10 12-21 25.8-11 13.7-20.7 26.2-21.7 27.7-0.9 1.5-1.4 3.7-1.2 4.8 0.3 1.1 9.4 9.1 20.3 17.8 10.8 8.7 20.8 16.6 22.2 17.6 1.5 1 3.5 1.5 5 1.3 1.8-0.4 8.5-8 24.4-27.9 12.1-15 22.1-28 22.2-28.8 0.2-0.9 0-2-0.4-2.6-0.4-0.5-10.7-9-23-18.7-12.2-9.8-23-17.8-24-17.7-0.9 0-2.2 0.3-2.8 0.7zm-18.4 29.9c-11.3 14.1-20.6 26.1-20.7 26.5-0.2 0.5 9.3 8.5 21 17.9 11.6 9.3 21.5 16.6 21.9 16.2 0.3-0.4 8.2-10.3 17.5-22 9.2-11.6 18.4-23.4 20.4-26l3.6-4.7c-32.7-26.1-42.4-33.6-42.7-33.6-0.3 0-9.7 11.6-21 25.7zm-113.9-12.4c-1.9 2.3-4 4.9-4.7 5.8-0.7 0.8-3.7 4.4-6.6 8-2.8 3.6-5.8 7.2-6.5 8-0.7 0.8-4.6 5.7-8.8 11-4.2 5.2-7.9 9.7-8.3 10-0.3 0.2-1.4 1.7-2.4 3.2-0.9 1.5-1.7 2.9-1.7 3 0 0.2 7.6 6.6 17 14.3 9.4 7.7 17.3 14.6 17.5 15.2 0.3 0.7 0.5 1.7 0.5 2.3 0 0.5-0.9 2-1.9 3.2-1.1 1.3-3.3 3.9-5 5.8l-2.9 3.5 46.3 37.7c3.1-4.4 5.4-7.1 7.2-8.9 1.8-1.8 4-3.3 5-3.3 1 0.1 2.5 0.8 3.5 1.8 1.7 1.6 1.9 1.5 5.6-2.8 2.2-2.5 5.6-6.8 7.8-9.6 2.1-2.8 5.5-7.1 7.6-9.5 2-2.4 6.1-7.2 9-10.7 2.9-3.5 7.5-9.2 10.2-12.6 2.8-3.5 6.7-8.2 8.8-10.5l3.7-4.1c-3.5-3.1-8.5-7.2-13.5-11.2-5-4.1-9.7-7.9-10.5-8.6-0.8-0.7-4.2-3.4-7.5-6.2l-6-4.9c-3.6 4.8-5.4 5.9-6.9 5.9-1.4 0-3.6-0.9-4.8-2-1.2-1.1-6.3-5.3-11.3-9.3-4.9-4-9.7-7.8-10.5-8.5-0.8-0.7-4.4-3.6-7.9-6.5-3.6-2.9-7.2-5.8-8-6.5-0.9-0.7-3.3-2.6-5.5-4.3-2.2-1.7-4.3-3-4.6-3-0.3 0-2.1 2-3.9 4.3zm146.5 75.8c-11.9 14.8-22.1 27.8-22.7 28.8-0.7 0.9-0.9 2.8-0.6 4.2 0.4 1.8 7.7 8.2 24.3 21.5 13 10.5 25.1 19.9 26.8 20.9 2.1 1.3 3.6 1.6 4.8 1 0.9-0.5 11.8-13.7 24.2-29.4 12.4-15.7 22.6-29 22.6-29.5 0-0.6-0.8-2-1.8-3.2-1-1.3-12.8-11-26.3-21.8-17.7-14.1-25.2-19.5-27.1-19.5-2.3 0-5.6 3.7-24.2 27zm21.8-20.2c-1.2 1.5-10.9 13.8-21.8 27.4l-19.6 24.8c37.9 30.2 49.4 39.1 49.8 39.3 0.5 0.1 6-6.1 12.3-13.9 6.2-7.7 14.9-18.5 19.3-24 4.4-5.5 9-11.4 10.3-13.2l2.2-3.2c-38.7-31-50-40-50.2-40-0.1 0.1-1.2 1.3-2.3 2.8zm-219.8 1.9c-1.1 1.5-4.2 5.4-6.9 8.7-2.7 3.4-5.2 6.3-5.6 6.6-0.3 0.3-1.2 1.4-2 2.6-0.8 1.1-3.1 4-5.1 6.5-2.1 2.4-6.1 7.3-9 10.9-2.9 3.6-5.8 7.2-6.5 8-0.6 0.8-3.6 4.4-6.5 8-2.9 3.6-5.8 7.2-6.5 8-0.6 0.8-3.6 4.4-6.5 8-2.9 3.6-5.8 7.2-6.5 8-0.7 0.8-2.6 3.3-4.3 5.5-1.7 2.2-3.1 4.3-3 4.5 0 0.3 2.8 2.8 6.1 5.5 3.4 2.8 8.7 7.3 11.9 10 3.1 2.8 8.5 7.3 11.9 10 3.4 2.8 8.7 7.2 11.6 9.8l5.4 4.7c11.8-14.3 17-20.4 19.1-22.7 2.2-2.4 3.9-4.5 3.9-4.8 0-0.2 1.2-1.9 2.6-3.7 1.5-1.8 4.4-5.2 6.5-7.5 2.2-2.4 3.9-4.6 3.9-5 0-0.4 2-2.8 4.5-5.3 2.4-2.5 4.4-4.8 4.5-5.2 0-0.4 1.2-2.2 2.6-4 1.5-1.8 4.4-5.2 6.5-7.5 2.2-2.4 3.9-4.6 3.9-5 0-0.5 0.8-1.6 1.8-2.5 1.6-1.7 1.5-1.9-1.3-4-1.6-1.3-4.7-3.9-6.8-5.8-2.1-1.9-3.8-4.4-3.8-5.5 0.1-1.1 1.5-3.8 3.4-6 1.8-2.2 3.8-4.8 4.5-5.8 1.1-1.5-0.6-3.2-14.8-14.7-8.8-7.2-16.3-13-16.8-13-0.4 0-1.6 1.2-2.7 2.7zm574.1 13.5c-1.1 0.9-1.4 4.9-1.2 20 0.1 10.7-0.2 19.9-0.8 21.3l-1 2.5h-132.9l-8.5 7.8c-34.1-32.5-44.9-42.4-46-43-1.1-0.6-2.6-0.7-3.6-0.2-0.9 0.5-11 10.8-22.3 22.9-11.4 12.1-20.8 22.8-21.1 23.8-0.2 0.9-0.1 2.3 0.3 3.1 0.4 0.7 6.5 6.8 13.5 13.5 7 6.7 13.3 12.1 13.9 12.1 0.7 0-2.4 3.7-6.8 8.3-4.4 4.5-9 9.6-10.2 11.2-1.2 1.7-2.2 3.6-2.2 4.3 0.1 0.7 3.8 4.8 8.3 9.2l8.3 7.9c-7.9 8.3-17.1 18.1-25.6 27.2-8.5 9.1-17.1 18.4-19.2 20.7l-3.7 4.3c0 124.8 0.2 139.8 1.2 140.8 1 1 8.2 1.3 30.3 1.3 21.9 0 29.4-0.3 30.3-1.3 0.9-0.9 1.2-14.6 1.2-57.3v-56l91.4-97.6 119.9 0.5c0.5 17.8 1.1 22.6 1.8 23.4 0.9 1 13.4 1.2 61.1 1.2 55.4 0 60.1-0.1 61.5-1.7 1-1.2 1.6-4.9 2-12.3l0.5-10.6 116.9-0.5 91.4 97.1c0 100.4 0.3 112.8 1.3 113.8 0.9 1 8.2 1.3 30.2 1.3 22.5 0 29.3-0.2 30.2-1.2 0.9-1 1.3-13.8 1.5-50.9l0.3-49.5c23.7-0.4 26.2-0.7 27.5-2.1 1.2-1.4 1.5-5.7 1.9-21.3l0.3-19.6-56.1-60c15-15.2 18.8-19.9 18.8-21.1 0-1.2-5-7.1-12.7-15-7-7.1-25.2-25.7-40.4-41.2-20.2-20.6-28.4-28.3-30-28.3-1.6 0-7.6 5.4-19.7 17.5l-17.5 17.5-124.9-0.5c-0.5-35.6-1-42.4-1.8-43.3-1-1-16.5-1.3-78.7-1.3-58.8 0.1-77.8 0.4-78.9 1.3zm2.8 23.6c-0.2 16.8-0.6 21.2-1.8 22.6-1.4 1.6-6.7 1.7-67.8 1.7l-66.3-0.1c-7.6 7-10.5 9-11.3 9-0.8 0-6.8-5-13.2-11.2-6.5-6.2-16-15.4-21.3-20.5-5.2-5.1-10.5-9.9-11.7-10.8-2.2-1.4-2.5-1.3-8 4.7-3.2 3.4-9.4 10.1-13.8 14.8-4.4 4.7-11 11.6-14.5 15.4l-6.4 6.8c10.8 10.3 17.2 16.4 21.2 20.3 4 3.9 7.2 7.7 7.2 8.5 0 0.9-3.2 5-7.2 9.2-4 4.3-8.4 8.9-9.7 10.3l-2.5 2.5c17.2 16.2 17.6 16.7 16.3 19.1-0.6 1.3-11.9 13.8-25 27.7l-23.8 25.3v136.1h55v-113.6l92.4-98.5c111.6-0.1 125.2 0.2 126.2 1.2 0.8 0.9 1.2 4.7 1.2 12.5v11.3h116.4c1.2-5.1 1.5-10.1 1.5-14.6 0-4.9 0.4-8.4 1.2-9.2 0.9-1 14.7-1.3 62.2-1.2h61l92.4 98.5v113.6h55c-0.1-95.3 0-98.7 1.7-100.3 1.5-1.5 3.8-1.7 14.3-1.8h12.5c1.1-7.4 1.5-15.6 1.5-23v-13.5c-8.1-8.7-13.9-14.8-18-19.1-4.1-4.4-12.5-13.4-18.5-19.9-6-6.5-12.9-13.7-15.3-16-2.3-2.2-4.5-4.9-4.8-6-0.4-1.6 1.7-4.2 9.3-11.7l9.8-9.7c-3.6-4.4-14.6-15.8-26.8-28.2-12.2-12.4-28.7-29.2-36.7-37.3-7.9-8.1-14.7-14.8-14.9-14.7-0.3 0.1-8.4 7.7-18 17l-17.5 17c-123.9 0.1-129 0-130.4-1.6-1.3-1.4-1.5-5.2-1.3-22.6l0.3-20.8h-151.7zm-437.1-1.1c-0.6 0.4-28.8 35.4-62.6 77.8-33.7 42.4-62.1 78.3-63.1 79.8-0.9 1.5-1.4 3.5-1.1 4.5 0.3 0.9 13.2 11.9 28.5 24.2 15.4 12.4 41.8 33.7 58.7 47.4 16.9 13.7 31.7 25.5 32.9 26.3 1.3 0.7 3.2 1.2 4.3 0.9 1.1-0.3 18-20.5 38.3-45.8 19.9-24.9 36.8-46.4 37.5-47.8 0.7-1.3 1.1-3.4 0.8-4.5-0.3-1.1-3.3-4.1-6.6-6.7-3.4-2.6-6.1-5.1-6-5.5 0-0.4 10.8-14.3 24-30.8 13.5-17 23.9-30.9 23.9-32 0-1.1-0.6-2.7-1.3-3.6-0.6-0.9-24.4-20.3-52.7-43-28.3-22.7-52.1-41.4-52.9-41.6-0.9-0.2-2 0-2.6 0.4zm1.8 4.1c-0.1 0.6-1.2 2.3-2.5 3.7-1.2 1.3-3.1 3.6-4.2 5.1-1.1 1.4-2.9 3.6-4 5-1.1 1.3-2.9 3.5-4 5-1.1 1.4-2.9 3.6-4 5-1.1 1.3-2.9 3.5-4 5-1.1 1.4-2.8 3.5-3.8 4.7-0.9 1.2-18 22.7-37.9 47.7-20 25-36.8 46.2-37.5 47-0.7 0.8-2.2 2.8-3.5 4.3-1.2 1.5-3.2 3.9-4.3 5.3-1.1 1.4-2.9 3.7-4 5-1.1 1.4-2.9 3.6-3.9 5-1.1 1.5-3.1 3.8-4.3 5.3-1.3 1.4-2.3 3-2.3 3.4 0 0.4 1.2 1.5 2.6 2.5 1.4 0.9 13.7 10.7 27.4 21.7 13.7 11 38.5 31 55.2 44.5 16.6 13.4 31.1 25 32 25.7 1.6 1.3 5.1-2.8 38.2-44.1 20.1-25.1 36.5-46 36.5-46.6 0-0.5-2.9-3.2-6.5-6-4.5-3.5-6.5-5.7-6.5-7.2 0-1.5 8.4-12.9 24.5-33l24.5-30.8c-77.8-62.2-101.1-81.2-102-82.3-0.8-1.1-1.6-1.5-1.7-0.9zm-206.3 64c-0.7 1-3 3.9-5 6.5l-3.8 4.7c5.8 5.6 9.4 8.5 11.8 10.1 2.3 1.6 4.2 3.2 4.2 3.6 0 0.5 1.7 1.9 3.7 3.3 2.1 1.4 5.1 3.8 6.8 5.3l3 2.9c3.1-4.3 5.7-7.4 7.7-9.6l3.7-4.1c-4.5-3.1-11.4-8.6-18.3-14.2-11.3-9.2-12.5-10-13.8-8.5zm64.4 9.9c-1.1 1-8.7 10.1-16.9 20.3-8.2 10.2-15.7 19.7-16.6 21.3-1 1.5-1.5 3.5-1.3 4.5 0.3 0.9 7.4 7.4 15.8 14.3 8.4 6.9 16.4 13.4 17.8 14.3 1.4 1.1 3.5 1.6 5 1.3 1.7-0.4 7.3-6.4 19-20.8 9.1-11.2 17.1-21.4 17.8-22.6 0.6-1.3 0.9-3.1 0.7-4.1-0.3-0.9-4.4-4.9-9.3-8.8-4.8-3.9-12.7-10.3-17.5-14.3-4.8-3.9-9.6-7.1-10.6-7.1-1 0-2.8 0.8-3.9 1.7zm-0.4 7.1c-1.8 2.2-4.5 5.4-5.8 7.2-1.4 1.9-4.8 6.1-7.5 9.4-2.7 3.4-5.5 6.8-6.2 7.6-0.6 0.8-3.3 4.2-6 7.5l-4.9 6c15.2 12.4 22.6 18.4 26.3 21.3 3.7 2.9 7 5.3 7.3 5.3 0.2 0 2.4-2.1 4.7-4.6 2.3-2.4 4.3-4.9 4.3-5.5 0-0.5 0.9-1.5 2-2.2 1.1-0.7 2-1.6 2-2 0-0.4 1.1-2.2 2.6-4 1.4-1.8 4.3-5.2 6.5-7.5 2.1-2.4 3.9-4.6 3.9-5 0-0.5 1.8-2.8 3.9-5.3 2.2-2.5 4-4.8 4-5.3 0-0.4-7.2-6.6-15.9-13.7-8.8-7.2-16.4-13-16.9-13-0.5 0-2.4 1.7-4.3 3.8zm588.5 82.3c-2.1 0.5-5 1.6-6.5 2.3-1.5 0.8-4.4 3.1-6.3 5.3-2 2.1-4.2 5.6-5 7.8-1.2 3.4-1.5 17-1.5 84.1 0 67.3 0.3 80.7 1.5 84 0.8 2.2 2.8 5.6 4.5 7.4 1.7 1.9 5.1 4.6 7.5 6l4.5 2.6h146.9c7-4 10.4-6.7 12.1-8.6 1.6-1.8 3.7-5.2 4.5-7.4 1.2-3.3 1.4-16.7 1.4-84 0-67.1-0.2-80.7-1.4-84.1-0.8-2.2-3.1-5.7-5-7.9-2-2.1-5.6-4.8-8.1-6-4.4-2-5.8-2.1-74.9-2.2-39.9-0.1-72.1 0.2-74.2 0.7zm-2.5 4c-1.8 0.5-4.9 2.6-6.9 4.7-2.1 2.1-4.3 5.2-5 7-1.1 2.6-1.4 19.4-1.4 84v80.8c3.6 7 6.6 10.4 8.9 12l4.3 3h149.4c6-4.2 8.9-7.1 10.3-9.1l2.5-3.7v-166.4c-4.2-6.1-7.1-9-9.1-10.4l-3.7-2.5c-115.2-0.2-147.4 0.1-149.3 0.6zm18.5 12c-2.1 0.5-5 1.6-6.5 2.4-1.5 0.7-4.2 2.9-6 4.7-1.7 1.8-4 5.1-5 7.3-1.5 3.6-1.8 7.7-2 33.3l-0.3 29.3h68v-78.1c-34.5 0.2-46.2 0.6-48.2 1.1zm62.2 37.9v39.1h69.9c-0.5-56.7-0.6-58.8-2.6-63.1-1.2-2.4-3.6-5.9-5.5-7.7-1.9-1.7-5.2-4-7.4-4.9-3.4-1.6-7.6-1.9-29.1-2.2l-25.2-0.3zm-64.8-33.9c-1.7 0.5-4.9 2.6-6.9 4.7-2 2.1-4.2 5.2-5 7-1 2.4-1.3 10.3-1.3 30.8v27.5h32.5c1.8-5 4-8.7 5.9-11.3 2-2.6 5.7-6.3 8.3-8.3 2.6-1.9 6.9-4.3 9.5-5.2l4.8-1.7v-44.6c-34.5 0.2-46 0.6-47.8 1.1zm67.8 21.1l-0.1 22.4c7.4 2.6 11.7 5 14.3 6.9 2.6 2 6.3 5.7 8.3 8.3 1.9 2.6 4.1 6.3 4.7 8l1.2 3.3h34.5l-0.5-57.7c-4.2-6.1-7.1-9-9.2-10.4-3.6-2.4-3.9-2.5-28.4-2.8l-24.7-0.3zm-26.6 28.7c-3.3 1.6-7.5 4.4-9.4 6.3-1.8 1.8-4.7 5.4-6.2 7.9-1.6 2.4-2.9 4.8-2.9 5.2 0 0.4 2.7 0.8 6 0.8 4.9 0 6.1-0.4 6.5-1.8 0.2-1 2.1-3.3 4.2-5.2 2.1-2 4.9-4.2 6.2-5 1.9-1.3 2.2-2.2 1.9-6.3l-0.3-4.8zm26.5 1.9c0 4.5 0.3 5 4.7 8.3 2.6 1.9 5.7 4.9 6.8 6.7 1.9 3 2.4 3.2 7.7 3.2 3.2 0.1 5.8-0.3 5.8-0.7 0-0.4-1.3-2.8-2.8-5.2-1.6-2.5-4.4-6-6.3-7.9-1.9-1.8-5.2-4.2-7.4-5.4-2.2-1.1-5-2.4-6.3-2.8-2.2-0.8-2.3-0.7-2.2 3.8zm-23.5 11.4c-1.6 1.2-3.8 3.2-4.7 4.5l-1.8 2.4h10c0-7-0.1-9-0.2-9-0.2 0-1.6 0.9-3.3 2.1zm23.6 2.3l-0.1 4.6h10.5c-3.1-3.5-4.7-5.1-5.5-5.8-0.8-0.7-2.3-1.7-3.2-2.3-1.5-0.9-1.7-0.5-1.7 3.5zm-12.9 6.3c-1.2 0.2-3.4 1.6-4.7 3.1-1.4 1.5-2.6 3.6-2.8 4.7-0.2 1.1-0.2 3.1 0 4.5 0.2 1.4 1.6 3.7 3.1 5.2 1.5 1.5 3.6 2.9 4.7 3.1 1.1 0.2 3.1 0.2 4.5 0 1.4-0.2 3.8-1.6 5.3-3.1 1.5-1.5 2.8-3.6 2.9-4.7 0.1-1.1 0-2.9 0-4-0.1-1.1-0.8-3-1.4-4.3-0.7-1.2-2.2-2.7-3.3-3.2-1.1-0.5-2.9-1.1-4-1.3-1.1-0.2-3-0.2-4.3 0zm-2.2 5.3c-1.1 1.1-2 3.3-2 5 0 1.6 0.9 3.9 2 5 1.1 1.1 3.3 2 5 2 1.7 0 3.9-0.9 5-2 1.1-1.1 2-3.4 2-5 0-1.7-0.9-3.9-2-5-1.1-1.1-3.3-2-5-2-1.7 0-3.9 0.9-5 2zm-69.7 40.8c0.2 22.1 0.5 26.3 2.1 29.7 1 2.2 3 5.3 4.5 6.9 1.4 1.5 4.7 4 7.2 5.5l4.5 2.6 49.4 0.5v-71h-68.1zm81.8 9.7v35.6l51.4-0.5c7-4.2 10.2-6.6 11.7-8.2 1.5-1.6 3.5-4.6 4.5-6.8 1.6-3.6 1.8-7.2 1.8-29.8v-25.8h-69.4zm-78-8.2c0 23.5 0.1 24.4 2.3 28.7 1.3 2.5 4.3 5.9 6.6 7.5l4.3 3 47.8 0.5v-37.5c-7.4-2.6-11.9-5.2-14.8-7.4-2.8-2.2-6.6-6-8.2-8.3-1.7-2.4-3.6-5.8-4.3-7.6l-1.2-3.2h-32.5zm36-23.5c0 0.4 1.3 2.8 2.8 5.2 1.6 2.5 4.4 6 6.3 7.9 1.9 1.8 5.2 4.3 7.4 5.6 2.2 1.3 5 2.6 6.3 2.9 2.1 0.6 2.2 0.4 2.2-4.8 0-5.4-0.1-5.6-4-8.1-2.2-1.3-5.2-4-6.7-6-2.6-3.2-3.2-3.5-8.5-3.5-3.2 0-5.8 0.4-5.8 0.8zm55.7 2.7c-1.5 2-4.5 4.7-6.7 6-3.9 2.5-4 2.7-4 8.1 0 5.2 0.1 5.4 2.2 4.8 1.3-0.3 4.1-1.6 6.3-2.9 2.2-1.3 5.5-3.8 7.4-5.6 1.9-1.9 4.7-5.4 6.2-7.9 1.6-2.4 2.9-4.8 2.9-5.2 0-0.4-2.6-0.8-5.8-0.8-5.4 0-5.9 0.3-8.5 3.5zm16.9-1.2c-0.3 1.2-2 4.5-3.8 7.2-1.8 2.7-5.8 6.9-8.8 9.3-3 2.4-7.7 5.2-10.3 6.1l-4.7 1.7v37.5l49.6-0.5c6.1-4.3 9-7.2 10.3-9.2 2.5-3.7 2.5-3.8 2.7-29l0.2-25.4c-34.5 0-34.7 0.1-35.2 2.3zm227.2 21.1c-0.7 0.7-1.2 4.8-1.3 9.7l-0.2 8.5c-8.5 0.5-11.6 1.1-12.3 1.8-1 0.9-1.3 15.5-1.3 73.2 0 57.7 0.3 72.3 1.3 73.2 0.7 0.7 3.8 1.4 6.8 1.5l5.5 0.3c0.5 17.8 1.1 22.6 1.8 23.4 0.9 1 9 1.2 37.2 1.2 27.5 0 36.3-0.3 37.3-1.3 0.9-1 1.2-22.9 1.2-95.8 0-75-0.3-94.8-1.3-95.8-1-1-9.5-1.3-37.4-1.3-28.3 0-36.3 0.3-37.3 1.4zm3 11.4c0 5.6-0.4 9.2-1.2 10-0.7 0.7-3.7 1.3-7 1.3h-5.8v141c9.1 0 12 0.5 12.8 1.3 0.8 0.9 1.2 4.7 1.2 12.5v11.3h68.9v-186.1h-68.9zm-481.7 140.6c-0.9 1-1.3 7.4-1.3 23.8l-0.2 22.4c-182.8 0.5-207.1 0.9-208.1 1.8-1 1-1.3 17.6-1.3 84.3 0.1 65.6 0.3 83.3 1.3 84.3 1 1 27.6 1.2 130.7 1.2 102.3 0 129.8-0.3 130.7-1.2 1-1 1.2-25.6 1.2-108.4 0-85-0.2-107.3-1.2-108.3-1-0.9-7.4-1.2-25.9-1.2-19.2 0-24.9 0.3-25.9 1.3zm3.1 25.4c0 16.6-0.4 23.2-1.2 24.1-1 0.9-23.3 1.2-105 1.2h-103.7v163.1h255.8v-211.1h-46zm-261.8 31.5c-1.1 0.9-1.3 6.9-1.2 34.2 0.1 25.2 0.5 33.4 1.5 34.4 0.9 0.9 6.6 1.2 22.3 1.2 15.4 0 21.3-0.3 22.2-1.3 0.9-0.9 1.2-9.6 1.2-34.2 0-25.3-0.3-33.3-1.2-34.3-1-1-6.7-1.3-22.3-1.3-14.9 0-21.5 0.4-22.5 1.3zm3 34.3v31.5h39v-63h-39zm-68.5 22.3c-1 1-1.8 2.1-1.8 2.5 0 0.4-1 2.4-2.1 4.4-1.2 2.1-4.2 7.6-6.7 12.3-2.6 4.7-7.8 14.3-11.7 21.5-4 7.1-7.1 13.1-7.1 13.2 0 0.2-1.1 2-2.3 4-1.3 2.1-4.5 7.9-7.2 12.8-2.6 5-5.4 10-6.1 11.3-0.8 1.2-2.1 3.3-2.9 4.7l-1.5 2.5c-5.4-3.1-7.8-3.8-8.7-3.5-1 0.2-3 2.6-4.4 5.2-1.5 2.7-6.3 11.5-10.8 19.6-4.4 8.1-8.1 15-8.1 15.2 0 0.3-1.5 3.1-3.3 6.3-1.9 3.2-5.2 9.1-7.4 13.2-2.2 4.2-5.7 10.7-7.7 14.6-2.1 3.8-4.6 8.3-5.5 10-1 1.6-3.8 6.8-6.3 11.5-2.5 4.6-8.2 15.1-12.6 23.2-4.5 8.1-8.1 15-8.1 15.3 0 0.3-1.6 3.2-3.5 6.5-2 3.3-3.5 7-3.5 8.2 0 1.3 0.3 2.8 0.7 3.5 0.4 0.6 5.9 3.6 12.3 6.7 6.3 3 18.4 9.4 26.9 14.2 8.6 4.8 23.1 12.2 32.3 16.5 9.2 4.4 17.8 7.9 19.2 7.9 1.6 0 3.1-0.9 4.3-2.7 1-1.5 3.5-5.7 5.4-9.3 2-3.6 5.1-9.2 6.9-12.5 1.8-3.3 4.3-7.9 5.6-10.2 1.2-2.4 3.4-6.2 4.7-8.5 1.3-2.4 3.6-6.6 5.1-9.3 1.6-2.8 3.8-6.9 5.1-9.3 1.3-2.3 3.5-6.2 4.9-8.7 1.3-2.5 3.6-6.5 5-9 1.3-2.5 3.6-6.5 5-9 1.3-2.5 3.7-6.7 5.1-9.3 1.5-2.6 3.7-6.5 4.9-8.7 1.2-2.2 8.5-15.3 16.2-29.1 7.7-13.7 15.1-27.3 16.6-30.2l2.6-5.3c0-68.6-0.3-89-0.7-89.7-0.4-0.6-10.2-6.3-21.8-12.7-11.5-6.4-21.9-11.6-23-11.6-1.2 0-3 0.8-4 1.8zm-5.8 19.4c-5.2 9.5-16.2 29.7-24.6 44.8-8.3 15.1-15.7 28.2-16.6 29-1.3 1.4-1.9 1.3-5.7-0.7-2.3-1.3-4.5-2-4.8-1.5-0.4 0.4-18 32.8-39.3 72-21.2 39.2-38.5 71.5-38.5 71.8 0 0.3 4.4 2.6 9.7 5.2 5.4 2.5 15.1 7.6 21.6 11.2 6.5 3.7 14.2 7.9 17 9.5 2.8 1.5 12.7 6.4 21.9 10.7 15.7 7.4 16.8 7.8 18.2 6.2 0.8-1 2.4-3.6 3.5-5.8 1.1-2.2 3.3-6.2 4.9-9 1.6-2.7 3.8-6.8 5-9 1.2-2.2 3.4-6.2 5-9 1.6-2.7 3.8-6.8 5-9 1.1-2.2 3.4-6.3 5-9 1.6-2.8 3.8-6.8 5-9 1.1-2.2 3.4-6.3 5-9 1.6-2.8 3.8-6.8 5-9 1.1-2.2 3.4-6.3 5-9 1.6-2.8 3.8-6.8 5-9 1.1-2.2 3.4-6.3 5-9 1.6-2.8 3.8-6.8 5-9 1.1-2.2 3.4-6.3 5-9 1.5-2.8 3.8-6.8 4.9-9.1 1.2-2.2 3.5-6.2 5-9 1.6-2.7 3.9-6.8 5-9 1.2-2.2 3.7-6.8 5.6-10.2l3.5-6.3v-86c-5-3-13.4-7.6-21.9-12.3-8.6-4.6-16.5-9-17.7-9.6-2.1-1.1-2.7-0.3-11.7 16.1zm64.3-4c-1.1 1-1.3 8.3-1.2 43.3 0.1 32.4 0.5 42.3 1.5 43.3 0.9 0.9 7.3 1.3 25.8 1.2 18.2 0 24.8-0.3 25.7-1.2 0.9-1 1.2-11.6 1.2-43.3 0-32.6-0.3-42.3-1.2-43.3-1-0.9-7.4-1.3-25.8-1.2-17.7 0-25 0.3-26 1.2zm3 43.3v40.5h46v-81h-46zm-243.2 167.3c-1.3 2.1-10.3 18.6-20.1 36.8-12.3 22.9-17.5 33.6-17.1 35 0.3 1.3 4.3 4 10.8 7.5 5.6 3 14.1 7.6 18.8 10.1 4.7 2.5 16.1 8.7 25.5 13.8 9.3 5.1 17.7 9 18.5 8.7 0.8-0.3 6.7-10.1 13.1-21.8 6.4-11.7 15.3-28 19.8-36.3 5.9-10.8 8-15.6 7.6-17.3-0.3-1.2-2.4-3.2-4.8-4.6-2.3-1.3-7.2-3.9-10.7-5.9-3.6-1.9-11.9-6.4-18.5-9.9-6.6-3.6-16.1-8.7-21-11.4-5-2.6-10.4-5.6-12-6.6-1.7-1-4-1.8-5.2-1.8q-2.3 0-4.7 3.7zm4.1 1c-0.2 0.4-2.6 4.8-5.2 9.8-2.6 4.9-7.5 13.9-10.8 20-3.3 6-8 14.8-10.5 19.5-2.4 4.7-6 11.1-7.8 14.3-2.5 4.2-3 5.9-2.1 6.4 0.7 0.4 4.2 2.3 7.7 4.1 3.6 1.9 7.4 4 8.5 4.7 1.1 0.7 5.8 3.3 10.5 5.7 4.7 2.5 10.1 5.5 12 6.6 1.9 1.2 6.2 3.5 9.5 5.2 3.3 1.7 8.9 4.6 12.5 6.4 3.6 1.9 6.7 3.2 7 2.9 0.3-0.2 1.7-2.5 3.2-5.1 1.4-2.6 4-7.4 5.7-10.7 1.7-3.3 4.6-8.7 6.5-12 1.8-3.3 4.8-8.7 6.5-12 1.7-3.3 4.6-8.7 6.5-12 1.8-3.3 4.6-8.5 6-11.5 1.4-3 2.6-5.7 2.6-6 0-0.3-2.8-2-6.3-3.7-3.4-1.8-10.1-5.3-14.7-7.9-4.7-2.5-14.4-7.8-21.5-11.7-7.2-3.9-15.8-8.6-19.2-10.4-3.3-1.9-6.3-3-6.6-2.6zm-35.7 84.5c-1.1 1.2-2 2.6-2 3 0 0.5-1.9 4.1-4.3 8.1-2.4 4-6.1 10.6-8.3 14.7-2.3 4.2-5.6 9.9-7.4 12.8-1.8 2.9-3.2 5.4-3.1 5.5 0.1 0.2-3 5.8-6.8 12.5-3.9 6.7-7 12.5-7 12.8 0 0.2-1.1 2.1-2.4 4.2-1.3 2.1-3.9 6.7-5.8 10.3-2 3.5-4.8 8.7-6.4 11.5-1.5 2.7-4 7.1-5.6 9.7-1.6 2.6-2.8 5-2.8 5.3 0 0.3-1.9 3.7-4.3 7.7-2.3 4-5.1 8.9-6.1 10.8-1.2 2.1-1.7 4.5-1.3 6 0.4 2 3.6 4.2 14.8 10.5 7.8 4.4 15.9 8.9 17.9 10 2 1.1 7.7 4.2 12.6 6.9 6.3 3.5 9.5 4.7 11.1 4.2 1.2-0.3 3.1-2.3 4.1-4.3 1-2.1 4.6-8.6 8-14.5 3.4-6 6.1-11 6.1-11.3 0-0.3 0.9-1.7 1.9-3.3 1-1.5 3.4-5.6 5.4-9.2 1.9-3.6 6.2-11.4 9.6-17.3 3.4-5.9 6.1-11 6.1-11.2 0-0.3 0.8-1.8 1.9-3.3 1-1.5 3.6-5.9 5.6-9.7 2.1-3.9 4.6-8.4 5.5-10 0.8-1.7 3.5-6.3 5.8-10.3 2.3-4 4.2-7.5 4.2-7.8 0-0.2 1.7-3.3 3.8-6.7 2.1-3.4 4.9-8.3 6.1-10.8 1.5-2.8 2.1-5.4 1.7-7-0.4-1.9-3.1-3.9-12.2-9-6.5-3.5-13.8-7.6-16.3-9-2.5-1.4-9.1-5.1-14.6-8.2-5.5-3.2-10.7-5.8-11.7-5.8-0.9 0-2.6 1-3.8 2.2zm-33.2 67.7c-29.4 52.7-36.4 66-35.4 67 0.6 0.8 3 2.2 5.2 3.1 2.2 1 6 3 8.5 4.6 2.4 1.6 7.8 4.6 12 6.8 4.1 2.1 8.1 4.5 9 5.3 0.8 0.7 1.9 1.4 2.5 1.3 0.5 0 2.1 0.9 3.4 1.8 1.4 1 4.2 2.6 6.3 3.6l3.7 1.7c3.1-6.6 5.1-10.3 6.5-12.5 1.3-2.2 3.3-5.8 4.5-8 1.1-2.2 3.3-6.3 4.9-9 1.6-2.8 3.7-6.4 4.5-8 0.9-1.7 2.9-5.3 4.5-8 1.6-2.8 3.9-6.8 5-9 1.2-2.2 3.2-5.8 4.5-8 1.4-2.2 3.4-5.8 4.5-8 1.2-2.2 3.2-5.8 4.5-8 1.4-2.2 3.4-5.8 4.5-8 1.2-2.2 3.4-6.3 5-9 1.6-2.8 3.6-6.4 4.5-8 0.9-1.7 2.9-5.3 4.5-8.1 1.6-2.7 3.6-6.3 4.5-8 0.9-1.6 2.7-5 4.1-7.5 2.2-4.1 2.2-4.6 0.7-5.8-1-0.7-11.4-6.7-23.2-13.3-11.8-6.7-22.6-12.7-24.1-13.4l-2.5-1.2zm-45.5 74.4c-0.5 0.7-4 7.1-7.8 14.2-3.7 7.2-9.2 17.6-12.1 23.1-3 5.5-6.3 11.8-7.5 14-1.3 2.5-1.8 4.9-1.5 6.5 0.5 2 4.6 4.6 23.3 14.5 12.5 6.6 22.8 12.3 23 12.7 0.2 0.4-2.6 6.2-6.1 12.8-3.6 6.6-6.5 13.2-6.6 14.7 0 1.6 0.6 3.3 1.3 3.9 0.7 0.6 30.5 16.8 66.2 35.9 48.6 25.9 65.5 34.5 67.2 34.1 1.3-0.3 2.6-1.6 2.9-2.8 0.4-1.3 2-4.5 3.6-7.3 1.7-2.7 7.1-12.8 12-22.5 5-9.6 9.8-18.8 10.8-20.5 0.9-1.6 5.4-10.1 9.8-18.8 4.5-8.6 8.1-16.6 8.1-17.7 0-1.2-1.3-2.8-3.2-3.9-1.8-1.1-20.6-11-41.7-22.1-21.2-11.2-43.4-22.9-49.5-26-6-3.2-28.2-14.9-49.2-25.9-21-11.1-39.1-20.2-40.1-20.2-1 0-2.3 0.6-2.9 1.3zm-7.2 22.5c-5.7 10.9-12 23-14.2 27l-3.8 7.3c6.4 3.5 12.4 6.6 17.4 9.2 5 2.6 12.7 6.7 17.2 9 4.5 2.4 9.3 5.4 10.8 6.8 1.4 1.4 2.6 2.7 2.6 3 0 0.3-3.2 6.4-7 13.7-3.9 7.3-7 13.6-7 14 0 0.5 2.3 2 5.2 3.6 2.9 1.5 8.9 4.7 13.3 7.1 4.4 2.3 11.1 5.9 14.9 7.9 3.9 2.1 10.4 5.5 14.5 7.8 4.2 2.2 10.9 5.9 15 8 4.1 2.2 11.1 5.9 15.5 8.3 4.4 2.4 11.2 6 15 8 3.9 2 10.6 5.6 15 8 4.4 2.4 10.9 5.8 14.5 7.5 3.6 1.7 6.5 3 6.6 2.9 0-0.1 1.3-2.5 2.8-5.3 1.6-2.7 4.6-8.3 6.7-12.5 2.1-4.1 6.8-13.1 10.4-20 3.6-6.9 8.9-17 11.8-22.4 2.8-5.5 6.8-13.2 8.8-17 2-3.9 3.5-7.2 3.5-7.3-0.1 0-13.2-7-29.1-15.3-16-8.4-38-20-49-25.8-11-5.8-33.2-17.5-49.5-26-16.2-8.5-34.4-18.1-40.5-21.3l-11.1-5.9z"/>
</svg>